<svg t="1690555877074" class="icon" viewBox="0 0 1757 1024" version="1.1" xmlns="http://www.w3.org/2000/svg"
     p-id="28649" width="23" height="23">
    <path d="M949.660657 675.11403c0 50.833194-3.018507 101.903284 0.962865 152.40788 3.110209 39.523343-17.209313 55.655164-48.68585 65.008717-79.000836 23.445015-159.935045 27.273552-241.541732 20.525851-49.434746-4.088358-98.242866-11.172299-144.628537-30.781135-19.914507-8.428896-29.275701-19.379582-29.038806-42.511283 1.138627-110.538507 1.566567-221.122866-0.076418-331.638448-0.565493-37.735164 24.965731-47.516657 51.222925-56.228299 87.353313-28.992955 177.36597-29.290985 267.699583-20.266029 37.910925 3.790328 75.340418 11.072955 110.599641 26.830328 23.047642 10.308776 35.121672 25.133851 34.09003 52.758925-2.025075 54.562388-0.59606 109.247045-0.603701 163.893493zM528.040119 534.306388c0 22.275821 1.046925 42.511284-0.328597 62.570985-1.123343 16.460418 8.192 23.521433 20.976717 27.273552 112.693493 33.081313 225.685015 34.17409 338.470209 0.832956 17.820657-5.265194 32.599881-75.141731 19.203821-87.024717-2.735761-2.422448-9.468179-1.948657-13.793433-0.748895-120.679164 33.356418-241.220776 28.88597-364.528717-2.903881z m378.031762 130.498866c-125.05791 34.51797-250.230448 33.685015-375.189015-0.351523-8.016239 72.505313-6.403821 76.066388 62.227104 89.25612 84.434149 16.223522 169.34209 16.391642 253.692179-0.741254 65.925731-13.388418 66.514149-15.482269 59.269732-88.163343z m-0.802388 117.026388c-119.051463 32.187224-238.530866 35.320358-357.97206 3.117851-16.238806-4.378746-18.149254-0.840597-19.853373 14.458268-3.721552 33.371701 6.770627 50.374687 41.945791 57.840717 93.543164 19.868657 186.948776 21.030209 280.70591 5.448597 61.042627-10.15594 64.236896-16.147104 55.173732-80.865433z m-350.834627-288.355343c109.216478 32.538746 218.295403 33.386985 327.206209-0.374448-109.216478-32.424119-218.287761-32.867343-327.206209 0.374448z"
          fill="#F19401" p-id="28650"></path>
    <path d="M99.320358 720.177672c0.106985-129.711761 80.25409-241.113791 200.681075-274.538985 33.027821-9.162507 45.277612-22.680836 51.383403-55.907344 53.33206-290.548537 403.738746-416.706866 631.08203-228.306149a278.237612 278.237612 0 0 1 19.677612 18.042269c8.214925 8.260776 10.15594 18.179821 2.582925 27.357612-8.719284 10.545672-19.731104 10.515104-30.429612 2.39188-6.082866-4.615642-11.500896-10.064239-17.514985-14.779224-107.076776-83.891582-225.983045-105.120478-351.751642-54.40191-125.348299 50.550448-199.924537 146.722388-215.85003 282.104358-4.493373 38.208955-16.957134 51.520955-54.585313 58.528478-94.452537 17.576119-156.503881 76.975761-184.10603 168.409791-27.296478 90.425313-4.432239 170.70997 59.590687 239.577791 4.332896 4.653851 9.261851 8.749851 13.671164 13.334925 8.467104 8.826269 14.588179 18.447284 5.028298 30.093373-10.652657 12.975761-21.939582 9.651582-33.058388 0.328597-27.709134-23.238687-49.289552-51.421612-65.704119-83.433074-21.251821-41.418507-33.28-85.183045-30.697075-128.802388zM960.366806 1000.944716c-95.377194 0.007642-190.754388 0.359164-286.12394-0.34388-15.719164-0.122269-41.510209 8.986746-40.279881-19.547702 1.130985-26.134925 25.844537-18.959284 42.297314-18.997492 161.501612-0.405015 323.003224 0.389731 484.504835-0.657194 44.360597-0.282746 88.942806-3.599284 132.944239-9.193075 32.836776-4.18006 63.182328-18.51606 91.655642-35.946985 13.717015-8.398328 29.887045-22.520358 41.915224-0.695403 11.386269 20.671045-8.169075 29.000597-21.893732 37.345433-54.615881 33.188299-114.282985 48.128-177.977313 48.059224-89.011582-0.091701-178.030806-0.022925-267.042388-0.022926z"
          fill="#F19402" p-id="28651"></path>
    <path d="M1497.592358 763.376716c-1.100418 5.685493-2.170269 21.228896-7.259701 35.320359-8.459463 23.414448-29.619582 47.478448 12.63188 60.561194 6.770627 2.093851 9.216 11.661373 2.697553 19.425432-5.76191 6.854687-13.984478 9.567522-20.13612 4.26412-30.582448-26.425313-65.001075-15.596896-99.893492-14.825075-67.851463 1.482507-110.202269-48.21206-108.20012-120.136597 1.902806-68.218269 44.513433-111.891104 109.323463-112.04394 68.485731-0.168119 111.065791 45.109493 110.836537 127.434507z m-93.275701 66.64406c-6.090507-17.048836-37.926209-13.640597-26.005015-33.386985 10.071881-16.674388 27.877254-0.978149 39.431642 7.030448 16.437493 11.386269 22.023642 3.316537 27.006089-10.736717 10.66794-30.093373 10.301134-60.148537-3.454089-88.767044-13.885134-28.924179-48.999164-40.822448-77.969194-28.480956-32.439403 13.824-48.059224 60.385433-35.702448 106.45015 10.606806 39.569194 32.477612 53.500179 76.693015 47.891104z"
          fill="#845EC2" p-id="28652"></path>
    <path d="M1155.943164 635.514269c29.634866 2.109134 57.091821 6.541373 75.027105 32.508179 8.581731 12.410269 13.39606 26.387104-0.030568 37.58997-15.138388 12.631881-25.554149 2.812179-33.058388-11.141731-7.657075-14.221373-18.30209-24.996299-34.976477-26.356538-18.623045-1.513075-38.873791 1.283821-44.253612 21.335881-5.746627 21.37409 14.114388 26.180776 29.971104 31.132657 20.594627 6.426746 41.984 11.019463 61.638687 19.593552 38.346507 16.720239 50.183642 57.015403 28.16 91.907821-19.32609 30.613015-50.581015 37.482985-83.226746 36.504836-33.058388-1.001075-62.632119-11.638448-78.695165-44.459941-7.190925-14.702806-12.349134-30.016955 5.991165-39.584477 18.34794-9.582806 25.034507 6.281552 30.574806 18.653612 8.734567 19.494209 22.107701 30.42197 43.856238 30.406686 20.487642-0.015284 40.272239-4.608 45.30818-26.669851 5.654925-24.751761-14.099104-32.026746-33.379344-37.398925-14.679881-4.088358-29.474388-7.855761-43.955582-12.578388-30.345552-9.911403-52.60609-27.128358-49.350686-62.914866 3.20191-35.190448 27.510448-49.205493 58.849432-54.959761 7.488955-1.375522 15.016119-2.491224 21.549851-3.568716z"
          fill="#845EC2" p-id="28653"></path>
    <path d="M1555.723463 593.874149c1.268537 11.042388-5.410388 20.487642-17.728956 22.933015-13.533612 2.697552-21.312955-7.351403-24.423164-19.043343a288.286567 288.286567 0 0 0-45.438089-95.629373c-32.836776-45.376955-75.363343-78.313075-127.350448-99.328-14.786866-5.975881-35.916418-10.958328-25.791045-33.417552 9.59809-21.297672 27.923104-10.874269 42.862806-4.638568 97.272358 40.616119 161.341134 111.669493 193.222687 211.960359 1.536 4.837254 2.659343 9.796776 4.646209 17.163462z"
          fill="#F19403" p-id="28654"></path>
    <path d="M1579.43594 736.393552c1.429015 28.855403-7.168 65.146269 7.152717 84.434149 13.770507 18.554269 51.994746 4.378746 79.413492 6.044657 13.73994 0.832955 27.541015 3.645134 28.710209 18.676538 1.283821 16.628537-13.006328 19.219104-26.562865 19.242029-34.227582 0.053493-68.462806-0.175761-102.69803 0.091702-20.174328 0.160478-30.59009-8.459463-30.467821-29.489672 0.305672-55.792716 0.320955-111.585433-0.045851-167.362865-0.106985-15.719164 4.256478-29.925254 20.854448-30.857553 18.829373-1.054567 25.256119 13.205015 25.080358 30.72-0.236896 22.810746-0.061134 45.644418-0.061134 68.455164-0.466149 0.007642-0.924657 0.030567-1.375523 0.045851z"
          fill="#845EC2" p-id="28655"></path>
    <path d="M554.434866 493.476299c108.918448-33.241791 217.989731-32.798567 327.206209-0.374448-108.910806 33.753791-217.989731 32.913194-327.206209 0.374448z"
          fill="#FEFCF9" p-id="28656"></path>
</svg>