<?xml version="1.0" encoding="utf-8"?>
<!-- Generator: Adobe Illustrator 19.1.0, SVG Export Plug-In . SVG Version: 6.00 Build 0)  -->
<svg version="1.1" id="Layer_3" xmlns="http://www.w3.org/2000/svg" xmlns:xlink="http://www.w3.org/1999/xlink" x="0px" y="0px"
	 viewBox="-300 370.5 127 137" enable-background="new -300 370.5 127 137" xml:space="preserve">
<g opacity="0.95">
	<g>
		<path fill="#AE3DE2" d="M-231.686,441.988c1.976-1.555,2.313-4.411,0.753-6.38c-1.561-1.969-4.428-2.304-6.405-0.749
			c-1.976,1.554-2.313,4.411-0.753,6.379C-236.53,443.207-233.663,443.543-231.686,441.988"/>
		<path fill="#AF3DE1" d="M-232.268,441.537c1.922-1.613,2.167-4.472,0.548-6.387c-1.62-1.914-4.49-2.159-6.412-0.545
			c-1.922,1.613-2.167,4.472-0.548,6.386C-237.06,442.905-234.19,443.149-232.268,441.537"/>
		<path fill="#B03DE0" d="M-232.85,441.085c1.867-1.672,2.021-4.534,0.343-6.394c-1.678-1.86-4.551-2.013-6.419-0.341
			c-1.867,1.671-2.021,4.534-0.343,6.393C-237.591,442.603-234.718,442.756-232.85,441.085"/>
		<path fill="#B13DDF" d="M-233.432,440.634c1.813-1.73,1.874-4.595,0.139-6.401c-1.737-1.805-4.613-1.867-6.426-0.137
			c-1.813,1.729-1.874,4.595-0.139,6.4C-238.121,442.301-235.245,442.363-233.432,440.634"/>
		<path fill="#B23EDE" d="M-234.014,440.182c1.758-1.788,1.728-4.656-0.066-6.407c-1.795-1.751-4.675-1.721-6.432,0.067
			c-1.758,1.787-1.728,4.656,0.066,6.407C-238.652,441.999-235.772,441.97-234.014,440.182"/>
		<path fill="#B23EDD" d="M-234.597,439.731c1.703-1.846,1.582-4.718-0.271-6.414c-1.853-1.697-4.736-1.576-6.439,0.271
			c-1.703,1.846-1.582,4.718,0.271,6.414C-239.182,441.697-236.3,441.576-234.597,439.731"/>
		<path fill="#B33EDC" d="M-235.179,439.279c1.649-1.904,1.436-4.779-0.476-6.421c-1.912-1.642-4.798-1.43-6.446,0.475
			c-1.649,1.904-1.436,4.779,0.476,6.421C-239.713,441.396-236.827,441.183-235.179,439.279"/>
		<path fill="#B43EDB" d="M-235.761,438.828c1.594-1.963,1.289-4.84-0.681-6.428c-1.97-1.588-4.859-1.284-6.453,0.679
			c-1.594,1.962-1.289,4.84,0.681,6.427C-240.243,441.094-237.355,440.79-235.761,438.828"/>
		<path fill="#B53EDA" d="M-236.343,438.377c1.539-2.021,1.143-4.902-0.885-6.435c-2.029-1.533-4.921-1.138-6.46,0.883
			c-1.539,2.02-1.143,4.902,0.885,6.434C-240.774,440.792-237.882,440.397-236.343,438.377"/>
		<path fill="#B63ED9" d="M-236.925,437.925c1.485-2.079,0.997-4.963-1.09-6.442c-2.087-1.479-4.982-0.993-6.467,1.086
			c-1.485,2.079-0.997,4.963,1.09,6.441C-241.304,440.49-238.409,440.004-236.925,437.925"/>
		<path fill="#B73ED8" d="M-237.507,437.474c1.43-2.137,0.85-5.024-1.295-6.449c-2.146-1.425-5.044-0.847-6.474,1.29
			c-1.43,2.137-0.85,5.024,1.295,6.448C-241.835,440.188-238.937,439.61-237.507,437.474"/>
		<path fill="#B83ED7" d="M-238.089,437.022c1.375-2.196,0.704-5.086-1.5-6.456c-2.204-1.37-5.105-0.701-6.481,1.494
			c-1.375,2.195-0.704,5.086,1.5,6.455C-242.365,439.886-239.464,439.217-238.089,437.022"/>
		<path fill="#B93FD6" d="M-238.671,436.571c1.321-2.254,0.558-5.147-1.704-6.463c-2.263-1.316-5.167-0.555-6.488,1.698
			c-1.321,2.253-0.558,5.147,1.704,6.462C-242.896,439.584-239.992,438.824-238.671,436.571"/>
		<path fill="#BA3FD5" d="M-239.253,436.119c1.266-2.312,0.411-5.208-1.909-6.47c-2.321-1.261-5.229-0.41-6.495,1.902
			c-1.266,2.311-0.411,5.208,1.909,6.469C-243.426,439.282-240.519,438.431-239.253,436.119"/>
		<path fill="#BB3FD4" d="M-239.835,435.668c1.212-2.37,0.265-5.27-2.114-6.476c-2.38-1.207-5.29-0.264-6.502,2.106
			c-1.212,2.37-0.265,5.27,2.114,6.476C-243.957,438.98-241.046,438.038-239.835,435.668"/>
		<path fill="#BB3FD3" d="M-240.417,435.216c1.157-2.428,0.119-5.331-2.319-6.483c-2.438-1.152-5.352-0.118-6.509,2.31
			c-1.157,2.428-0.119,5.331,2.319,6.483C-244.487,438.679-241.574,437.644-240.417,435.216"/>
		<path fill="#BC3FD2" d="M-240.999,434.765c1.102-2.487-0.028-5.392-2.524-6.49c-2.496-1.098-5.413,0.027-6.516,2.514
			c-1.102,2.486,0.028,5.392,2.523,6.49C-245.018,438.377-242.101,437.251-240.999,434.765"/>
		<path fill="#BD3FD1" d="M-241.581,434.313c1.048-2.545-0.174-5.453-2.728-6.497c-2.555-1.044-5.475,0.173-6.522,2.718
			c-1.048,2.544,0.174,5.453,2.728,6.497C-245.548,438.075-242.629,436.858-241.581,434.313"/>
		<path fill="#BE3FD0" d="M-242.163,433.862c0.993-2.603-0.32-5.515-2.933-6.504c-2.613-0.989-5.536,0.319-6.529,2.922
			c-0.993,2.603,0.32,5.515,2.933,6.503C-246.079,437.773-243.156,436.465-242.163,433.862"/>
		<path fill="#BF3FCF" d="M-242.745,433.411c0.938-2.661-0.467-5.576-3.138-6.511c-2.672-0.935-5.598,0.465-6.536,3.126
			c-0.938,2.661,0.467,5.576,3.138,6.51C-246.609,437.471-243.683,436.071-242.745,433.411"/>
		<path fill="#C040CE" d="M-243.327,432.959c0.884-2.72-0.613-5.637-3.343-6.518c-2.73-0.88-5.659,0.61-6.543,3.33
			c-0.884,2.719,0.613,5.637,3.343,6.517C-247.14,437.169-244.211,435.678-243.327,432.959"/>
		<path fill="#C140CD" d="M-243.909,432.508c0.829-2.778-0.759-5.699-3.548-6.525c-2.789-0.826-5.721,0.756-6.55,3.534
			c-0.829,2.777,0.759,5.699,3.547,6.524C-247.67,436.867-244.738,435.285-243.909,432.508"/>
		<path fill="#C240CC" d="M-244.491,432.056c0.775-2.836-0.905-5.76-3.752-6.532c-2.847-0.771-5.783,0.902-6.557,3.738
			c-0.774,2.836,0.905,5.76,3.752,6.531C-248.201,436.565-245.266,434.892-244.491,432.056"/>
		<path fill="#C340CB" d="M-245.073,431.605c0.72-2.894-1.052-5.821-3.957-6.539c-2.906-0.717-5.844,1.048-6.564,3.942
			c-0.72,2.894,1.052,5.821,3.957,6.538C-248.731,436.263-245.793,434.499-245.073,431.605"/>
		<path fill="#C440CA" d="M-245.655,431.153c0.665-2.952-1.198-5.883-4.162-6.546c-2.964-0.663-5.906,1.193-6.571,4.146
			c-0.665,2.952,1.198,5.883,4.162,6.545C-249.262,435.962-246.32,434.105-245.655,431.153"/>
		<path fill="#C440C9" d="M-246.237,430.702c0.611-3.011-1.344-5.944-4.367-6.552c-3.022-0.608-5.967,1.339-6.578,4.35
			c-0.611,3.01,1.344,5.944,4.366,6.552C-249.792,435.66-246.848,433.712-246.237,430.702"/>
		<path fill="#C540C8" d="M-246.819,430.25c0.556-3.069-1.491-6.005-4.571-6.559c-3.081-0.554-6.029,1.485-6.585,4.554
			c-0.556,3.068,1.491,6.005,4.571,6.559C-250.323,435.358-247.375,433.319-246.819,430.25"/>
		<path fill="#C640C7" d="M-247.401,429.799c0.501-3.127-1.637-6.067-4.776-6.566c-3.139-0.499-6.09,1.631-6.592,4.758
			c-0.501,3.127,1.637,6.067,4.776,6.566C-250.853,435.056-247.902,432.926-247.401,429.799"/>
		<path fill="#C741C6" d="M-247.983,429.347c0.447-3.185-1.783-6.128-4.981-6.573c-3.198-0.445-6.152,1.776-6.599,4.962
			c-0.447,3.185,1.783,6.128,4.981,6.573C-251.384,434.754-248.43,432.532-247.983,429.347"/>
		<path fill="#C841C5" d="M-248.565,428.896c0.392-3.244-1.93-6.189-5.186-6.58c-3.256-0.391-6.214,1.922-6.606,5.166
			c-0.392,3.243,1.93,6.189,5.186,6.579C-251.914,434.452-248.957,432.139-248.565,428.896"/>
		<path fill="#C941C4" d="M-249.147,428.445c0.337-3.302-2.076-6.251-5.391-6.587c-3.315-0.336-6.275,2.068-6.613,5.37
			c-0.337,3.301,2.076,6.251,5.39,6.586C-252.445,434.15-249.485,431.746-249.147,428.445"/>
		<path fill="#CA41C3" d="M-249.729,427.993c0.283-3.36-2.222-6.312-5.595-6.594c-3.373-0.282-6.337,2.214-6.619,5.574
			c-0.283,3.36,2.222,6.312,5.595,6.593C-252.975,433.848-250.012,431.353-249.729,427.993"/>
		<path fill="#CB41C2" d="M-250.311,427.542c0.228-3.418-2.369-6.373-5.8-6.601c-3.432-0.227-6.398,2.359-6.626,5.778
			c-0.228,3.418,2.369,6.373,5.8,6.6C-253.506,433.546-250.539,430.96-250.311,427.542"/>
		<path fill="#CC41C1" d="M-250.893,427.09c0.174-3.477-2.515-6.435-6.005-6.608c-3.49-0.173-6.46,2.505-6.633,5.982
			c-0.173,3.476,2.515,6.435,6.005,6.607C-254.036,433.245-251.067,430.566-250.893,427.09"/>
		<path fill="#CD41C0" d="M-251.475,426.639c0.119-3.535-2.661-6.496-6.21-6.615c-3.549-0.118-6.521,2.651-6.64,6.186
			c-0.119,3.534,2.661,6.496,6.209,6.614C-254.567,432.943-251.594,430.173-251.475,426.639"/>
		<path fill="#CD41BF" d="M-252.057,426.187c0.064-3.593-2.808-6.557-6.414-6.622c-3.607-0.064-6.583,2.797-6.647,6.39
			c-0.064,3.593,2.808,6.557,6.414,6.621C-255.098,432.641-252.122,429.78-252.057,426.187"/>
		<path fill="#CE42BE" d="M-252.639,425.736c0.01-3.651-2.954-6.619-6.619-6.628c-3.665-0.01-6.644,2.942-6.654,6.594
			c-0.01,3.651,2.954,6.619,6.619,6.628C-255.628,432.339-252.649,429.387-252.639,425.736"/>
		<path fill="#CF42BD" d="M-253.221,425.284c-0.045-3.709-3.1-6.68-6.824-6.635c-3.724,0.045-6.706,3.088-6.661,6.798
			c0.045,3.709,3.1,6.68,6.824,6.635C-256.159,432.037-253.176,428.993-253.221,425.284"/>
		<path fill="#D042BC" d="M-253.803,424.833c-0.1-3.768-3.246-6.741-7.029-6.642c-3.782,0.099-6.768,3.234-6.668,7.002
			c0.1,3.767,3.246,6.741,7.029,6.642C-256.689,431.735-253.704,428.6-253.803,424.833"/>
		<path fill="#D142BB" d="M-254.386,424.381c-0.154-3.826-3.393-6.803-7.234-6.649c-3.841,0.154-6.829,3.38-6.675,7.206
			c0.154,3.826,3.393,6.803,7.233,6.648C-257.22,431.433-254.231,428.207-254.386,424.381"/>
		<path fill="#D242BB" d="M-254.968,423.93c-0.209-3.884-3.539-6.864-7.438-6.656c-3.899,0.208-6.891,3.525-6.682,7.41
			c0.209,3.884,3.539,6.864,7.438,6.655C-257.75,431.131-254.759,427.814-254.968,423.93"/>
		<path fill="#D342BA" d="M-255.55,423.479c-0.264-3.942-3.685-6.925-7.643-6.663c-3.958,0.263-6.952,3.671-6.689,7.614
			c0.264,3.942,3.685,6.925,7.643,6.662C-258.281,430.829-255.286,427.421-255.55,423.479"/>
		<path fill="#D442B9" d="M-256.132,423.027c-0.318-4.001-3.832-6.986-7.848-6.67c-4.016,0.317-7.014,3.817-6.696,7.818
			c0.318,4,3.832,6.986,7.848,6.669C-258.811,430.528-255.813,427.027-256.132,423.027"/>
		<path fill="#D543B8" d="M-256.714,422.576c-0.373-4.059-3.978-7.048-8.053-6.677c-4.075,0.371-7.075,3.963-6.703,8.022
			c0.373,4.058,3.978,7.048,8.052,6.676C-259.342,430.226-256.341,426.634-256.714,422.576"/>
		<path fill="#D543B7" d="M-257.296,422.124c-0.427-4.117-4.124-7.109-8.258-6.684c-4.133,0.426-7.137,4.108-6.709,8.226
			c0.427,4.117,4.124,7.109,8.257,6.683C-259.872,429.924-256.868,426.241-257.296,422.124"/>
		<path fill="#D643B6" d="M-257.878,421.673c-0.482-4.175-4.271-7.17-8.462-6.691c-4.192,0.48-7.198,4.254-6.716,8.43
			c0.482,4.175,4.271,7.17,8.462,6.69C-260.403,429.622-257.396,425.848-257.878,421.673"/>
		<path fill="#D743B5" d="M-258.46,421.221c-0.537-4.233-4.417-7.232-8.667-6.698c-4.25,0.535-7.26,4.4-6.723,8.634
			c0.537,4.233,4.417,7.232,8.667,6.697C-260.933,429.32-257.923,425.454-258.46,421.221"/>
		<path fill="#D843B4" d="M-259.042,420.77c-0.591-4.292-4.563-7.293-8.872-6.704c-4.308,0.589-7.322,4.546-6.73,8.838
			c0.591,4.291,4.563,7.293,8.871,6.704C-261.464,429.018-258.45,425.061-259.042,420.77"/>
		<path fill="#D943B3" d="M-259.624,420.318c-0.646-4.35-4.71-7.354-9.077-6.711c-4.367,0.643-7.383,4.691-6.737,9.042
			c0.646,4.35,4.71,7.354,9.076,6.711C-261.994,428.716-258.978,424.668-259.624,420.318"/>
		<path fill="#DA43B2" d="M-260.206,419.867c-0.701-4.408-4.856-7.416-9.281-6.718c-4.425,0.698-7.445,4.837-6.744,9.245
			c0.701,4.408,4.856,7.416,9.281,6.718C-262.525,428.414-259.505,424.275-260.206,419.867"/>
		<path fill="#DB43B1" d="M-260.788,419.415c-0.755-4.466-5.002-7.477-9.486-6.725c-4.484,0.752-7.506,4.983-6.751,9.449
			c0.755,4.466,5.002,7.477,9.486,6.724C-263.055,428.112-260.033,423.882-260.788,419.415"/>
		<path fill="#DC44B0" d="M-261.37,418.964c-0.81-4.525-5.149-7.538-9.691-6.732c-4.542,0.807-7.568,5.128-6.758,9.653
			c0.81,4.524,5.149,7.538,9.691,6.731C-263.586,427.81-260.56,423.488-261.37,418.964"/>
		<path fill="#DD44AF" d="M-261.952,418.513c-0.865-4.583-5.295-7.6-9.896-6.739c-4.601,0.861-7.629,5.274-6.765,9.857
			c0.865,4.583,5.295,7.6,9.895,6.738C-264.116,427.509-261.087,423.095-261.952,418.513"/>
		<path fill="#DE44AE" d="M-262.534,418.061c-0.919-4.641-5.441-7.661-10.101-6.746c-4.659,0.916-7.691,5.42-6.772,10.061
			c0.919,4.641,5.441,7.661,10.1,6.745C-264.647,427.207-261.615,422.702-262.534,418.061"/>
		<path fill="#DE44AD" d="M-263.116,417.61c-0.974-4.699-5.587-7.722-10.305-6.753c-4.718,0.97-7.753,5.566-6.779,10.265
			c0.974,4.699,5.587,7.722,10.305,6.752C-265.177,426.905-262.142,422.309-263.116,417.61"/>
		<path fill="#DF44AC" d="M-263.698,417.158c-1.028-4.757-5.734-7.784-10.51-6.76c-4.776,1.024-7.814,5.711-6.786,10.469
			c1.028,4.757,5.734,7.784,10.51,6.759C-265.708,426.603-262.67,421.915-263.698,417.158"/>
		<path fill="#E044AB" d="M-264.28,416.707c-1.083-4.816-5.88-7.845-10.715-6.767c-4.835,1.079-7.876,5.857-6.793,10.673
			c1.083,4.815,5.88,7.845,10.714,6.766C-266.238,426.301-263.197,421.522-264.28,416.707"/>
		<path fill="#E144AA" d="M-264.862,416.255c-1.138-4.874-6.026-7.906-10.92-6.773c-4.893,1.133-7.937,6.003-6.799,10.877
			c1.138,4.874,6.026,7.906,10.919,6.773C-266.769,425.999-263.724,421.129-264.862,416.255"/>
		<path fill="#E244A9" d="M-265.444,415.804c-1.192-4.932-6.173-7.968-11.124-6.78c-4.951,1.188-7.999,6.149-6.806,11.081
			c1.192,4.932,6.173,7.968,11.124,6.78C-267.299,425.697-264.252,420.736-265.444,415.804"/>
		<path fill="#E345A8" d="M-266.026,415.352c-1.247-4.99-6.319-8.029-11.329-6.787c-5.01,1.242-8.06,6.294-6.813,11.285
			c1.247,4.99,6.319,8.029,11.329,6.787C-267.83,425.395-264.779,420.343-266.026,415.352"/>
		<path fill="#E445A7" d="M-266.608,414.901c-1.302-5.049-6.465-8.09-11.534-6.794c-5.068,1.297-8.122,6.44-6.82,11.489
			c1.302,5.048,6.465,8.09,11.534,6.794C-268.36,425.093-265.307,419.949-266.608,414.901"/>
		<path fill="#E545A6" d="M-267.19,414.449c-1.356-5.107-6.612-8.152-11.739-6.801c-5.127,1.351-8.183,6.586-6.827,11.693
			c1.356,5.107,6.612,8.152,11.738,6.8C-268.891,424.792-265.834,419.556-267.19,414.449"/>
		<path fill="#E645A5" d="M-267.772,413.998c-1.411-5.165-6.758-8.213-11.944-6.808c-5.185,1.405-8.245,6.732-6.834,11.897
			c1.411,5.165,6.758,8.213,11.943,6.807C-269.421,424.49-266.361,419.163-267.772,413.998"/>
		<path fill="#E745A4" d="M-268.354,413.547c-1.466-5.223-6.904-8.274-12.148-6.815c-5.244,1.46-8.307,6.877-6.841,12.101
			c1.466,5.223,6.904,8.274,12.148,6.814C-269.952,424.188-266.889,418.77-268.354,413.547"/>
		<path fill="#E745A3" d="M-268.936,413.095c-1.52-5.281-7.051-8.336-12.353-6.822c-5.302,1.514-8.368,7.023-6.848,12.305
			c1.52,5.281,7.051,8.336,12.353,6.821C-270.482,423.886-267.416,418.376-268.936,413.095"/>
		<path fill="#E845A2" d="M-269.518,412.644c-1.575-5.34-7.197-8.397-12.558-6.829c-5.361,1.569-8.43,7.169-6.855,12.509
			c1.575,5.34,7.197,8.397,12.557,6.828C-271.013,423.584-267.943,417.983-269.518,412.644"/>
		<path fill="#E945A1" d="M-270.1,412.192c-1.629-5.398-7.343-8.458-12.763-6.836c-5.419,1.623-8.491,7.315-6.862,12.713
			c1.629,5.398,7.343,8.458,12.762,6.835C-271.543,423.282-268.471,417.59-270.1,412.192"/>
		<path fill="#EA46A0" d="M-270.682,411.741c-1.684-5.456-7.49-8.52-12.967-6.843c-5.477,1.677-8.553,7.46-6.869,12.917
			c1.684,5.456,7.49,8.519,12.967,6.842C-272.074,422.98-268.998,417.197-270.682,411.741"/>
		<path fill="#EB469F" d="M-271.264,411.289c-1.739-5.514-7.636-8.581-13.172-6.849c-5.536,1.732-8.614,7.606-6.876,13.121
			c1.739,5.514,7.636,8.581,13.172,6.849C-272.604,422.678-269.526,416.804-271.264,411.289"/>
		<path fill="#EC469E" d="M-271.846,410.838c-1.793-5.573-7.782-8.642-13.377-6.856c-5.594,1.786-8.676,7.752-6.883,13.325
			c1.793,5.573,7.782,8.642,13.376,6.856C-273.135,422.376-270.053,416.41-271.846,410.838"/>
		<path fill="#ED469D" d="M-272.428,410.386c-1.848-5.631-7.928-8.703-13.582-6.863c-5.653,1.841-8.737,7.898-6.89,13.529
			c1.848,5.631,7.928,8.703,13.581,6.863C-273.665,422.075-270.58,416.017-272.428,410.386"/>
		<path fill="#EE469C" d="M-273.01,409.935c-1.903-5.689-8.075-8.765-13.787-6.87c-5.711,1.895-8.799,8.043-6.896,13.733
			c1.903,5.689,8.075,8.765,13.786,6.87C-274.196,421.773-271.108,415.624-273.01,409.935"/>
		<path fill="#EF469B" d="M-273.592,409.484c-1.957-5.747-8.221-8.826-13.991-6.877c-5.77,1.95-8.861,8.189-6.903,13.937
			c1.957,5.747,8.221,8.826,13.991,6.876C-274.726,421.471-271.635,415.231-273.592,409.484"/>
		<path fill="#F0469A" d="M-274.174,409.032c-2.012-5.805-8.367-8.887-14.196-6.884c-5.828,2.004-8.922,8.335-6.91,14.141
			c2.012,5.805,8.367,8.887,14.196,6.883C-275.257,421.169-272.163,414.837-274.174,409.032"/>
		<path fill="#F04699" d="M-274.757,408.581c-2.066-5.864-8.514-8.949-14.401-6.891c-5.887,2.058-8.984,8.481-6.917,14.345
			c2.066,5.864,8.514,8.949,14.4,6.89C-275.787,420.867-272.69,414.444-274.757,408.581"/>
		<path fill="#F14798" d="M-275.339,408.129c-2.121-5.922-8.66-9.01-14.606-6.898c-5.945,2.113-9.045,8.626-6.924,14.549
			c2.121,5.922,8.66,9.01,14.605,6.897C-276.318,420.565-273.217,414.051-275.339,408.129"/>
		<path fill="#F24797" d="M-275.921,407.678c-2.176-5.98-8.806-9.071-14.811-6.905c-6.004,2.167-9.107,8.772-6.931,14.753
			c2.176,5.98,8.806,9.071,14.81,6.904C-276.848,420.263-273.745,413.658-275.921,407.678"/>
		<path fill="#F34796" d="M-276.503,407.226c-2.23-6.038-8.953-9.133-15.015-6.912c-6.062,2.222-9.168,8.918-6.938,14.957
			c2.23,6.038,8.953,9.133,15.015,6.911C-277.379,419.961-274.272,413.265-276.503,407.226"/>
		<path fill="#F44795" d="M-277.085,406.775c-2.285-6.097-9.099-9.194-15.22-6.919c-6.12,2.276-9.23,9.064-6.945,15.161
			c2.285,6.097,9.099,9.194,15.219,6.918C-277.909,419.659-274.8,412.871-277.085,406.775"/>
		<path fill="#F44794" d="M-276.5,406.417c2.227,6.079-0.915,12.805-7.018,15.023c-6.102,2.218-12.855-0.912-15.082-6.99
			c-2.227-6.079,0.915-12.805,7.018-15.023C-285.479,397.209-278.727,400.338-276.5,406.417"/>
		<path fill="#F44793" d="M-275.915,406.059c2.169,6.061-1.006,12.726-7.091,14.885c-6.084,2.16-12.775-1.002-14.944-7.063
			c-2.169-6.061,1.006-12.726,7.09-14.886C-284.774,396.836-278.084,399.999-275.915,406.059"/>
		<path fill="#F54892" d="M-275.33,405.702c2.111,6.043-1.097,12.646-7.164,14.748c-6.066,2.102-12.695-1.092-14.806-7.135
			c-2.111-6.043,1.097-12.646,7.163-14.749C-284.07,396.464-277.441,399.659-275.33,405.702"/>
		<path fill="#F54891" d="M-274.745,405.344c2.052,6.025-1.187,12.567-7.236,14.611c-6.048,2.044-12.616-1.183-14.668-7.208
			c-2.052-6.026,1.187-12.567,7.236-14.612C-283.365,396.092-276.798,399.319-274.745,405.344"/>
		<path fill="#F54890" d="M-274.16,404.986c1.994,6.007-1.278,12.488-7.309,14.474c-6.03,1.987-12.536-1.273-14.53-7.28
			c-1.994-6.008,1.278-12.488,7.308-14.474C-282.66,395.72-276.155,398.979-274.16,404.986"/>
		<path fill="#F5488F" d="M-273.576,404.629c1.936,5.989-1.369,12.408-7.382,14.336c-6.012,1.929-12.456-1.363-14.392-7.352
			c-1.936-5.99,1.369-12.408,7.381-14.337C-281.955,395.348-275.512,398.64-273.576,404.629"/>
		<path fill="#F5498E" d="M-272.991,404.271c1.878,5.971-1.459,12.329-7.454,14.199c-5.994,1.871-12.376-1.454-14.254-7.425
			c-1.878-5.972,1.459-12.329,7.454-14.2C-281.251,394.975-274.869,398.3-272.991,404.271"/>
		<path fill="#F5498D" d="M-272.406,403.913c1.82,5.953-1.55,12.249-7.527,14.062c-5.976,1.813-12.297-1.544-14.117-7.497
			c-1.82-5.954,1.55-12.249,7.527-14.062C-280.546,394.603-274.226,397.96-272.406,403.913"/>
		<path fill="#F6498C" d="M-271.821,403.556c1.762,5.935-1.641,12.17-7.6,13.924c-5.958,1.755-12.217-1.634-13.979-7.57
			c-1.762-5.936,1.641-12.17,7.599-13.925C-279.841,394.231-273.583,397.62-271.821,403.556"/>
		<path fill="#F6498B" d="M-271.236,403.198c1.704,5.917-1.731,12.091-7.672,13.787c-5.94,1.697-12.137-1.725-13.841-7.642
			c-1.704-5.918,1.731-12.091,7.672-13.788C-279.137,393.859-272.94,397.28-271.236,403.198"/>
		<path fill="#F6498A" d="M-270.651,402.84c1.646,5.899-1.822,12.011-7.745,13.65c-5.922,1.639-12.058-1.815-13.703-7.714
			c-1.646-5.9,1.822-12.011,7.745-13.65C-278.432,393.487-272.297,396.941-270.651,402.84"/>
		<path fill="#F64A89" d="M-270.067,402.483c1.587,5.882-1.913,11.932-7.818,13.512c-5.905,1.581-11.978-1.905-13.565-7.787
			c-1.587-5.882,1.913-11.932,7.817-13.513C-277.727,393.114-271.654,396.601-270.067,402.483"/>
		<path fill="#F64A88" d="M-269.482,402.125c1.529,5.864-2.003,11.852-7.891,13.375c-5.887,1.523-11.898-1.996-13.427-7.859
			c-1.529-5.864,2.003-11.852,7.89-13.376C-277.023,392.742-271.011,396.261-269.482,402.125"/>
		<path fill="#F64A87" d="M-268.897,401.767c1.471,5.846-2.094,11.773-7.963,13.238c-5.868,1.465-11.818-2.086-13.29-7.932
			c-1.471-5.846,2.094-11.773,7.963-13.238C-276.318,392.37-270.368,395.921-268.897,401.767"/>
		<path fill="#F74A86" d="M-268.312,401.409c1.413,5.828-2.185,11.694-8.036,13.1c-5.851,1.407-11.739-2.176-13.152-8.004
			c-1.413-5.828,2.185-11.694,8.035-13.101C-275.613,391.998-269.725,395.582-268.312,401.409"/>
		<path fill="#F74A85" d="M-267.727,401.052c1.355,5.81-2.275,11.614-8.109,12.963c-5.833,1.35-11.659-2.267-13.014-8.077
			c-1.355-5.81,2.275-11.614,8.108-12.964C-274.909,391.626-269.082,395.242-267.727,401.052"/>
		<path fill="#F74B84" d="M-267.142,400.694c1.297,5.792-2.366,11.535-8.181,12.826c-5.815,1.292-11.579-2.357-12.876-8.149
			c-1.297-5.792,2.366-11.535,8.181-12.826C-274.204,391.254-268.439,394.902-267.142,400.694"/>
		<path fill="#F74B83" d="M-266.558,400.336c1.239,5.774-2.457,11.455-8.254,12.689c-5.797,1.234-11.5-2.447-12.738-8.221
			c-1.239-5.774,2.457-11.455,8.253-12.689C-273.499,390.881-267.796,394.562-266.558,400.336"/>
		<path fill="#F74B82" d="M-265.973,399.979c1.18,5.756-2.547,11.376-8.327,12.551c-5.779,1.176-11.42-2.538-12.6-8.294
			c-1.18-5.757,2.547-11.376,8.326-12.552C-272.795,390.509-267.153,394.222-265.973,399.979"/>
		<path fill="#F74B81" d="M-265.388,399.621c1.122,5.738-2.638,11.296-8.399,12.414c-5.761,1.118-11.34-2.628-12.462-8.366
			c-1.122-5.739,2.638-11.296,8.399-12.414C-272.09,390.137-266.51,393.883-265.388,399.621"/>
		<path fill="#F84C80" d="M-264.803,399.263c1.064,5.72-2.729,11.217-8.472,12.277c-5.743,1.06-11.26-2.718-12.325-8.439
			c-1.064-5.721,2.729-11.217,8.472-12.277C-271.385,389.765-265.867,393.543-264.803,399.263"/>
		<path fill="#F84C7F" d="M-264.218,398.906c1.006,5.702-2.819,11.138-8.545,12.139c-5.725,1.002-11.181-2.809-12.187-8.511
			c-1.006-5.703,2.82-11.138,8.544-12.14C-270.68,389.393-265.224,393.203-264.218,398.906"/>
		<path fill="#F84C7E" d="M-263.633,398.548c0.948,5.684-2.91,11.058-8.617,12.002c-5.707,0.944-11.101-2.899-12.049-8.583
			c-0.948-5.685,2.91-11.058,8.617-12.002C-269.976,389.02-264.581,392.863-263.633,398.548"/>
		<path fill="#F84C7D" d="M-263.049,398.19c0.89,5.666-3.001,10.979-8.69,11.865c-5.689,0.886-11.021-2.989-11.911-8.656
			c-0.89-5.667,3.001-10.979,8.69-11.865C-269.271,388.648-263.938,392.524-263.049,398.19"/>
		<path fill="#F84C7C" d="M-262.464,397.833c0.832,5.648-3.092,10.899-8.763,11.727c-5.671,0.828-10.942-3.08-11.773-8.728
			c-0.832-5.649,3.092-10.899,8.762-11.728C-268.566,388.276-263.295,392.184-262.464,397.833"/>
		<path fill="#F84D7B" d="M-261.879,397.475c0.773,5.631-3.182,10.82-8.835,11.59c-5.653,0.77-10.862-3.17-11.635-8.801
			c-0.773-5.631,3.182-10.82,8.835-11.59C-267.862,387.904-262.652,391.844-261.879,397.475"/>
		<path fill="#F94D7A" d="M-261.294,397.117c0.715,5.613-3.273,10.741-8.908,11.453c-5.635,0.713-10.782-3.26-11.498-8.873
			c-0.715-5.613,3.273-10.741,8.908-11.453C-267.157,387.532-262.009,391.504-261.294,397.117"/>
		<path fill="#F94D79" d="M-260.709,396.759c0.657,5.595-3.364,10.661-8.981,11.315c-5.617,0.655-10.703-3.35-11.36-8.945
			c-0.657-5.595,3.364-10.661,8.98-11.316C-266.452,387.159-261.366,391.164-260.709,396.759"/>
		<path fill="#F94D78" d="M-260.124,396.402c0.599,5.577-3.454,10.582-9.054,11.178c-5.599,0.597-10.623-3.441-11.222-9.018
			c-0.599-5.577,3.454-10.582,9.053-11.178C-265.748,386.787-260.723,390.825-260.124,396.402"/>
		<path fill="#F94D77" d="M-259.54,396.044c0.541,5.559-3.545,10.502-9.126,11.041c-5.581,0.539-10.543-3.531-11.084-9.09
			c-0.541-5.559,3.545-10.502,9.126-11.041C-265.043,386.415-260.08,390.485-259.54,396.044"/>
		<path fill="#F94E76" d="M-258.955,395.686c0.483,5.541-3.636,10.423-9.199,10.903c-5.563,0.481-10.463-3.621-10.946-9.163
			s3.636-10.423,9.199-10.904C-264.338,386.043-259.438,390.145-258.955,395.686"/>
		<path fill="#F94E75" d="M-258.37,395.329c0.425,5.523-3.726,10.344-9.272,10.766c-5.545,0.423-10.384-3.712-10.808-9.235
			s3.726-10.344,9.271-10.767C-263.634,385.671-258.795,389.805-258.37,395.329"/>
		<path fill="#FA4E75" d="M-257.785,394.971c0.366,5.505-3.817,10.264-9.344,10.629c-5.527,0.365-10.304-3.802-10.67-9.308
			c-0.366-5.505,3.817-10.264,9.344-10.629C-262.929,385.298-258.152,389.466-257.785,394.971"/>
		<path fill="#FA4E74" d="M-257.2,394.613c0.308,5.487-3.908,10.185-9.417,10.492c-5.509,0.307-10.224-3.892-10.533-9.38
			c-0.308-5.487,3.908-10.185,9.417-10.492C-262.224,384.926-257.509,389.126-257.2,394.613"/>
		<path fill="#FA4F73" d="M-256.615,394.256c0.25,5.469-3.998,10.105-9.49,10.354c-5.491,0.249-10.145-3.983-10.395-9.452
			c-0.25-5.47,3.998-10.105,9.489-10.355C-261.52,384.554-256.866,388.786-256.615,394.256"/>
		<path fill="#FA4F72" d="M-256.031,393.898c0.192,5.451-4.089,10.026-9.562,10.217c-5.473,0.191-10.065-4.073-10.257-9.525
			c-0.192-5.452,4.089-10.026,9.562-10.217C-260.815,384.182-256.223,388.446-256.031,393.898"/>
		<path fill="#FA4F71" d="M-255.446,393.54c0.134,5.433-4.18,9.947-9.635,10.08c-5.455,0.133-9.985-4.163-10.119-9.597
			c-0.134-5.434,4.18-9.947,9.635-10.08C-260.11,383.81-255.58,388.107-255.446,393.54"/>
		<path fill="#FA4F70" d="M-254.861,393.183c0.076,5.415-4.27,9.867-9.708,9.942c-5.437,0.075-9.905-4.254-9.981-9.67
			c-0.076-5.416,4.27-9.867,9.707-9.943C-259.405,383.438-254.937,387.767-254.861,393.183"/>
		<path fill="#FB4F6F" d="M-254.276,392.825c0.018,5.398-4.361,9.788-9.78,9.805c-5.419,0.018-9.826-4.344-9.843-9.742
			c-0.018-5.398,4.361-9.788,9.78-9.805C-258.701,383.065-254.294,387.427-254.276,392.825"/>
		<path fill="#FB506E" d="M-253.691,392.467c-0.041,5.38-4.452,9.708-9.853,9.668c-5.401-0.04-9.746-4.434-9.705-9.814
			c0.04-5.38,4.452-9.708,9.853-9.668C-257.996,382.693-253.651,387.087-253.691,392.467"/>
		<path fill="#FB506D" d="M-253.106,392.11c-0.099,5.362-4.542,9.629-9.926,9.53c-5.383-0.098-9.666-4.525-9.568-9.887
			c0.099-5.362,4.542-9.629,9.926-9.531C-257.291,382.321-253.008,386.747-253.106,392.11"/>
		<path fill="#FB506C" d="M-252.522,391.752c-0.157,5.344-4.633,9.549-9.998,9.393c-5.365-0.156-9.587-4.615-9.43-9.959
			c0.157-5.344,4.633-9.549,9.998-9.393C-256.587,381.949-252.365,386.408-252.522,391.752"/>
		<path fill="#FB506B" d="M-251.937,391.394c-0.215,5.326-4.724,9.47-10.071,9.256c-5.347-0.214-9.507-4.705-9.292-10.032
			c0.215-5.326,4.724-9.47,10.071-9.256C-255.882,381.577-251.722,386.068-251.937,391.394"/>
		<path fill="#FB506A" d="M-251.352,391.036c-0.273,5.308-4.815,9.391-10.144,9.118c-5.329-0.272-9.427-4.796-9.154-10.104
			c0.273-5.308,4.815-9.391,10.144-9.119C-255.177,381.204-251.079,385.728-251.352,391.036"/>
		<path fill="#FC5169" d="M-250.767,390.679c-0.331,5.29-4.905,9.311-10.217,8.981c-5.311-0.33-9.347-4.886-9.016-10.177
			c0.331-5.29,4.905-9.311,10.216-8.981C-254.473,380.832-250.436,385.388-250.767,390.679"/>
		<path fill="#FC5168" d="M-250.182,390.321c-0.389,5.272-4.996,9.232-10.289,8.844c-5.293-0.388-9.268-4.976-8.878-10.249
			c0.389-5.272,4.996-9.232,10.289-8.844C-253.768,380.46-249.793,385.049-250.182,390.321"/>
		<path fill="#FC5167" d="M-249.597,389.963c-0.447,5.254-5.087,9.152-10.362,8.706c-5.275-0.446-9.188-5.067-8.741-10.321
			c0.447-5.254,5.087-9.152,10.362-8.707C-253.063,380.088-249.15,384.709-249.597,389.963"/>
		<path fill="#FC5166" d="M-249.013,389.606c-0.506,5.236-5.177,9.073-10.435,8.569c-5.257-0.504-9.108-5.157-8.603-10.394
			c0.506-5.236,5.177-9.073,10.434-8.569C-252.359,379.716-248.507,384.369-249.013,389.606"/>
		<path fill="#FC5265" d="M-248.428,389.248c-0.564,5.218-5.268,8.994-10.507,8.432c-5.239-0.562-9.029-5.247-8.465-10.466
			c0.564-5.218,5.268-8.994,10.507-8.432C-251.654,379.343-247.864,384.029-248.428,389.248"/>
		<path fill="#FC5264" d="M-247.843,388.89c-0.622,5.2-5.359,8.914-10.58,8.295c-5.221-0.619-8.949-5.338-8.327-10.539
			c0.622-5.201,5.359-8.914,10.58-8.295C-250.949,378.971-247.221,383.689-247.843,388.89"/>
		<path fill="#FD5263" d="M-247.258,388.533c-0.68,5.182-5.449,8.835-10.653,8.157c-5.203-0.677-8.869-5.428-8.189-10.611
			c0.68-5.183,5.449-8.835,10.653-8.157C-250.245,378.599-246.578,383.35-247.258,388.533"/>
		<path fill="#FD5262" d="M-246.673,388.175c-0.738,5.165-5.54,8.755-10.725,8.02c-5.185-0.735-8.789-5.518-8.051-10.683
			c0.738-5.165,5.54-8.755,10.725-8.02C-249.54,378.227-245.935,383.01-246.673,388.175"/>
		<path fill="#FD5261" d="M-246.088,387.817c-0.796,5.147-5.631,8.676-10.798,7.883c-5.167-0.793-8.71-5.609-7.913-10.756
			c0.796-5.147,5.631-8.676,10.798-7.883C-248.835,377.855-245.292,382.67-246.088,387.817"/>
		<path fill="#FD5360" d="M-245.504,387.46c-0.854,5.129-5.721,8.597-10.871,7.745c-5.149-0.851-8.63-5.699-7.776-10.828
			c0.854-5.129,5.721-8.597,10.871-7.745C-248.13,377.482-244.649,382.33-245.504,387.46"/>
		<path fill="#FD535F" d="M-244.919,387.102c-0.913,5.111-5.812,8.517-10.943,7.608c-5.131-0.909-8.55-5.789-7.638-10.901
			c0.913-5.111,5.812-8.517,10.943-7.608C-247.426,377.11-244.006,381.991-244.919,387.102"/>
		<path fill="#FD535E" d="M-244.334,386.744c-0.971,5.093-5.903,8.438-11.016,7.471c-5.113-0.967-8.471-5.88-7.5-10.973
			c0.971-5.093,5.903-8.438,11.016-7.471C-246.721,376.738-243.363,381.651-244.334,386.744"/>
		<path fill="#FE535D" d="M-243.749,386.387c-1.029,5.075-5.993,8.358-11.089,7.333c-5.095-1.025-8.391-5.97-7.362-11.046
			c1.029-5.075,5.993-8.358,11.089-7.333C-246.016,376.366-242.72,381.311-243.749,386.387"/>
		<path fill="#FE535C" d="M-243.164,386.029c-1.087,5.057-6.084,8.279-11.161,7.196c-5.077-1.083-8.311-6.06-7.224-11.118
			c1.087-5.057,6.084-8.279,11.161-7.196C-245.312,375.994-242.077,380.971-243.164,386.029"/>
		<path fill="#FE545B" d="M-242.579,385.671c-1.145,5.039-6.175,8.199-11.234,7.059c-5.059-1.141-8.232-6.151-7.086-11.19
			c1.145-5.039,6.175-8.199,11.234-7.059C-244.607,375.621-241.434,380.632-242.579,385.671"/>
		<path fill="#FE545A" d="M-241.995,385.313c-1.203,5.021-6.265,8.12-11.307,6.921c-5.041-1.199-8.152-6.241-6.949-11.263
			c1.203-5.021,6.265-8.12,11.307-6.921C-243.902,375.249-240.791,380.292-241.995,385.313"/>
		<path fill="#FE5459" d="M-241.41,384.956c-1.261,5.003-6.356,8.041-11.38,6.784c-5.023-1.257-8.072-6.331-6.811-11.335
			c1.261-5.003,6.356-8.041,11.38-6.784C-243.198,374.877-240.148,379.952-241.41,384.956"/>
		<path fill="#FE5458" d="M-240.825,384.598c-1.32,4.985-6.447,7.961-11.452,6.647c-5.005-1.314-7.992-6.422-6.673-11.408
			c1.32-4.985,6.447-7.961,11.452-6.647C-242.493,374.505-239.505,379.612-240.825,384.598"/>
		<path fill="#FF5557" d="M-240.24,384.24c-1.378,4.967-6.538,7.882-11.525,6.51c-4.987-1.372-7.913-6.512-6.535-11.48
			c1.378-4.967,6.538-7.882,11.525-6.51C-241.788,374.133-238.862,379.272-240.24,384.24"/>
		<path fill="#FF5556" d="M-239.655,383.883c-1.436,4.949-6.628,7.802-11.598,6.372c-4.969-1.43-7.833-6.602-6.397-11.552
			c1.436-4.949,6.628-7.802,11.598-6.372C-241.084,373.761-238.219,378.933-239.655,383.883"/>
		<path fill="#FF5555" d="M-239.07,383.525c-1.494,4.931-6.719,7.723-11.67,6.235c-4.951-1.488-7.753-6.693-6.259-11.625
			c1.494-4.931,6.719-7.723,11.67-6.235C-240.379,373.388-237.576,378.593-239.07,383.525"/>
		<path fill="#FF5654" d="M-237.33,385.384c-1.529,4.787-6.664,7.433-11.47,5.91c-4.805-1.523-7.462-6.638-5.933-11.426
			c1.529-4.787,6.664-7.433,11.47-5.91C-238.458,375.481-235.801,380.597-237.33,385.384"/>
		<path fill="#FF5653" d="M-235.59,387.243c-1.564,4.642-6.61,7.142-11.271,5.585c-4.66-1.558-7.17-6.584-5.607-11.227
			c1.564-4.642,6.61-7.143,11.271-5.585C-236.537,377.574-234.026,382.601-235.59,387.243"/>
		<path fill="#FF5752" d="M-233.85,389.102c-1.599,4.497-6.555,6.852-11.071,5.26c-4.515-1.593-6.879-6.53-5.28-11.028
			c1.599-4.497,6.555-6.852,11.071-5.26C-234.616,379.667-232.251,384.604-233.85,389.102"/>
		<path fill="#FF5851" d="M-232.11,390.961c-1.634,4.353-6.501,6.562-10.871,4.935c-4.37-1.627-6.588-6.475-4.954-10.828
			c1.634-4.353,6.501-6.562,10.871-4.935C-232.695,381.76-230.477,386.608-232.11,390.961"/>
		<path fill="#FF5850" d="M-230.37,392.82c-1.669,4.208-6.446,6.272-10.671,4.609c-4.224-1.662-6.296-6.421-4.628-10.629
			c1.669-4.208,6.446-6.272,10.671-4.61C-230.773,383.853-228.702,388.612-230.37,392.82"/>
		<path fill="#FF594F" d="M-228.63,394.679c-1.704,4.063-6.391,5.981-10.471,4.284c-4.079-1.697-6.005-6.367-4.301-10.43
			c1.704-4.063,6.391-5.981,10.471-4.285C-228.852,385.946-226.927,390.616-228.63,394.679"/>
		<path fill="#FF5A4E" d="M-226.89,396.538c-1.738,3.918-6.337,5.691-10.271,3.959c-3.934-1.732-5.713-6.312-3.975-10.231
			c1.738-3.918,6.337-5.691,10.271-3.959C-226.931,388.039-225.152,392.62-226.89,396.538"/>
		<path fill="#FF5A4D" d="M-225.15,398.398c-1.773,3.774-6.282,5.401-10.071,3.634c-3.788-1.767-5.422-6.258-3.648-10.032
			c1.773-3.774,6.282-5.401,10.071-3.634C-225.01,390.132-223.377,394.624-225.15,398.398"/>
		<path fill="#FF5B4C" d="M-223.41,400.257c-1.808,3.629-6.228,5.111-9.871,3.309c-3.643-1.801-5.13-6.204-3.322-9.833
			c1.808-3.629,6.228-5.111,9.871-3.309C-223.089,392.225-221.602,396.627-223.41,400.257"/>
		<path fill="#FF5C4B" d="M-221.67,402.116c-1.843,3.484-6.173,4.82-9.672,2.984c-3.498-1.836-4.839-6.149-2.996-9.634
			c1.843-3.484,6.173-4.82,9.672-2.984C-221.168,394.318-219.827,398.631-221.67,402.116"/>
		<path fill="#FF5D4A" d="M-219.93,403.975c-1.878,3.339-6.119,4.53-9.472,2.659c-3.352-1.871-4.548-6.095-2.669-9.435
			c1.878-3.34,6.119-4.53,9.472-2.659C-219.247,396.411-218.052,400.635-219.93,403.975"/>
		<path fill="#FF5D49" d="M-218.19,405.834c-1.913,3.195-6.064,4.24-9.272,2.334c-3.207-1.906-4.256-6.04-2.343-9.235
			c1.913-3.195,6.064-4.24,9.272-2.334C-217.326,398.504-216.277,402.639-218.19,405.834"/>
		<path fill="#FF5E48" d="M-216.45,407.693c-1.948,3.05-6.01,3.949-9.072,2.009c-3.062-1.94-3.965-5.986-2.017-9.036
			c1.948-3.05,6.01-3.95,9.072-2.009C-215.405,400.597-214.502,404.643-216.45,407.693"/>
		<path fill="#FF5F47" d="M-214.71,409.552c-1.983,2.905-5.955,3.659-8.872,1.684c-2.916-1.975-3.673-5.932-1.69-8.837
			c1.983-2.905,5.955-3.659,8.872-1.684C-213.484,402.69-212.727,406.647-214.71,409.552"/>
		<path fill="#FF5F46" d="M-212.97,411.411c-2.018,2.76-5.9,3.369-8.672,1.359c-2.771-2.01-3.382-5.877-1.364-8.638
			c2.018-2.761,5.9-3.369,8.672-1.359C-211.563,404.783-210.952,408.65-212.97,411.411"/>
		<path fill="#FF6045" d="M-211.23,413.27c-2.053,2.616-5.846,3.079-8.472,1.034c-2.626-2.045-3.091-5.823-1.038-8.439
			c2.053-2.616,5.846-3.079,8.472-1.034C-209.642,406.876-209.177,410.654-211.23,413.27"/>
		<path fill="#FF6144" d="M-209.49,415.129c-2.088,2.471-5.791,2.788-8.272,0.709c-2.481-2.08-2.799-5.769-0.711-8.24
			c2.088-2.471,5.791-2.789,8.272-0.709C-207.721,408.969-207.402,412.658-209.49,415.129"/>
		<path fill="#FF6144" d="M-207.75,416.988c-2.123,2.326-5.737,2.498-8.073,0.383c-2.335-2.114-2.508-5.714-0.385-8.041
			c2.123-2.326,5.737-2.498,8.073-0.384C-205.799,411.062-205.627,414.662-207.75,416.988"/>
		<path fill="#FF6243" d="M-206.01,418.847c-2.158,2.181-5.682,2.208-7.873,0.058c-2.19-2.149-2.216-5.66-0.059-7.842
			c2.158-2.182,5.682-2.208,7.873-0.059C-203.878,413.155-203.852,416.666-206.01,418.847"/>
		<path fill="#FF6342" d="M-204.27,420.706c-2.193,2.037-5.628,1.917-7.673-0.267c-2.045-2.184-1.925-5.606,0.268-7.643
			c2.193-2.037,5.628-1.918,7.673,0.266C-201.957,415.247-202.077,418.669-204.27,420.706"/>
		<path fill="#FF6341" d="M-202.53,422.565c-2.228,1.892-5.573,1.627-7.473-0.592c-1.899-2.219-1.633-5.551,0.594-7.443
			c2.227-1.892,5.573-1.628,7.473,0.591C-200.036,417.34-200.302,420.673-202.53,422.565"/>
		<path fill="#FF6440" d="M-200.79,424.425c-2.262,1.747-5.518,1.337-7.273-0.917c-1.754-2.254-1.342-5.497,0.92-7.244
			c2.262-1.748,5.518-1.337,7.273,0.916C-198.115,419.433-198.527,422.677-200.79,424.425"/>
		<path fill="#FF653F" d="M-199.05,426.284c-2.297,1.602-5.464,1.047-7.073-1.242c-1.609-2.288-1.051-5.443,1.247-7.045
			c2.297-1.603,5.464-1.047,7.073,1.241C-196.194,421.526-196.752,424.681-199.05,426.284"/>
		<path fill="#FF653E" d="M-197.309,428.143c-2.332,1.458-5.409,0.756-6.873-1.567c-1.463-2.323-0.759-5.388,1.573-6.846
			c2.332-1.458,5.409-0.757,6.873,1.567C-194.273,423.619-194.977,426.685-197.309,428.143"/>
		<path fill="#FF663D" d="M-195.569,430.002c-2.367,1.313-5.355,0.466-6.673-1.892c-1.318-2.358-0.468-5.334,1.899-6.647
			c2.367-1.313,5.355-0.466,6.673,1.892C-192.352,425.712-193.202,428.689-195.569,430.002"/>
		<path fill="#FF673C" d="M-193.829,431.861c-2.402,1.168-5.3,0.176-6.474-2.217c-1.173-2.393-0.176-5.28,2.226-6.448
			c2.402-1.169,5.3-0.176,6.474,2.217C-190.431,427.805-191.427,430.692-193.829,431.861"/>
		<path fill="#FF683B" d="M-192.089,433.72c-2.437,1.023-5.246-0.115-6.274-2.542c-1.027-2.428,0.115-5.225,2.552-6.249
			c2.437-1.024,5.246,0.114,6.274,2.542C-188.51,429.898-189.652,432.696-192.089,433.72"/>
		<path fill="#FF683A" d="M-190.349,435.579c-2.472,0.879-5.191-0.405-6.074-2.867c-0.882-2.462,0.406-5.171,2.878-6.05
			c2.472-0.879,5.191,0.404,6.074,2.867C-186.589,431.991-187.877,434.7-190.349,435.579"/>
		<path fill="#FF6939" d="M-188.609,437.438c-2.507,0.734-5.137-0.695-5.874-3.192c-0.737-2.497,0.698-5.116,3.205-5.851
			c2.507-0.734,5.136,0.695,5.874,3.192C-184.668,434.084-186.102,436.704-188.609,437.438"/>
		<path fill="#FF6A38" d="M-186.869,439.297c-2.542,0.589-5.082-0.985-5.674-3.517c-0.592-2.532,0.989-5.062,3.531-5.651
			c2.542-0.59,5.082,0.985,5.674,3.517C-182.747,436.177-184.327,438.708-186.869,439.297"/>
		<path fill="#FF6A37" d="M-185.129,441.156c-2.577,0.444-5.027-1.276-5.474-3.843c-0.446-2.567,1.281-5.008,3.858-5.452
			c2.577-0.445,5.027,1.275,5.474,3.842C-180.825,438.27-182.552,440.712-185.129,441.156"/>
		<path fill="#FF6B36" d="M-183.389,443.015c-2.612,0.3-4.973-1.566-5.274-4.168c-0.301-2.602,1.572-4.953,4.184-5.253
			c2.612-0.3,4.973,1.565,5.274,4.167C-178.904,440.363-180.777,442.715-183.389,443.015"/>
		<path fill="#FF6C35" d="M-181.649,444.874c-2.647,0.155-4.918-1.856-5.074-4.493c-0.156-2.636,1.864-4.899,4.51-5.054
			c2.647-0.156,4.918,1.856,5.074,4.492C-176.983,442.456-179.002,444.719-181.649,444.874"/>
		<path fill="#FF6C34" d="M-179.909,446.733c-2.682,0.01-4.864-2.147-4.875-4.818c-0.01-2.671,2.155-4.845,4.837-4.855
			c2.682-0.011,4.864,2.146,4.875,4.817C-175.062,444.549-177.228,446.723-179.909,446.733"/>
		<path fill="#FF6D33" d="M-178.169,448.592c-2.717-0.135-4.809-2.437-4.675-5.143c0.135-2.706,2.446-4.79,5.163-4.656
			c2.717,0.134,4.809,2.436,4.675,5.142C-173.141,446.642-175.453,448.727-178.169,448.592"/>
		<path fill="#FF6E33" d="M-179.016,449.072c2.718,0.179,5.067-1.872,5.246-4.58c0.179-2.708-1.879-5.047-4.598-5.225
			c-2.718-0.179-5.067,1.871-5.246,4.579C-183.792,446.553-181.734,448.893-179.016,449.072"/>
		<path fill="#FF6F34" d="M-179.862,449.551c2.72,0.223,5.106-1.794,5.33-4.503c0.223-2.709-1.801-5.086-4.521-5.308
			c-2.72-0.223-5.106,1.793-5.33,4.502C-184.606,446.951-182.582,449.328-179.862,449.551"/>
		<path fill="#FF7034" d="M-180.709,450.03c2.722,0.267,5.145-1.715,5.413-4.426c0.267-2.711-1.722-5.125-4.443-5.392
			c-2.722-0.267-5.145,1.714-5.413,4.426C-185.42,447.349-183.43,449.763-180.709,450.03"/>
		<path fill="#FF7135" d="M-181.555,450.509c2.724,0.311,5.184-1.636,5.497-4.349c0.312-2.713-1.643-5.164-4.366-5.475
			c-2.724-0.311-5.184,1.636-5.497,4.349C-186.233,447.746-184.279,450.198-181.555,450.509"/>
		<path fill="#FF7235" d="M-182.402,450.988c2.725,0.355,5.223-1.558,5.58-4.273c0.356-2.715-1.564-5.203-4.289-5.558
			c-2.725-0.355-5.224,1.557-5.58,4.272C-187.047,448.144-185.127,450.633-182.402,450.988"/>
		<path fill="#FF7336" d="M-183.248,451.467c2.727,0.4,5.263-1.479,5.664-4.196c0.4-2.716-1.485-5.242-4.212-5.641
			c-2.727-0.399-5.263,1.479-5.664,4.195C-187.861,448.542-185.975,451.068-183.248,451.467"/>
		<path fill="#FF7436" d="M-184.095,451.946c2.729,0.444,5.302-1.401,5.747-4.119c0.445-2.718-1.406-5.281-4.135-5.724
			c-2.729-0.444-5.302,1.4-5.747,4.118C-188.675,448.94-186.824,451.503-184.095,451.946"/>
		<path fill="#FF7537" d="M-184.941,452.425c2.731,0.488,5.341-1.322,5.831-4.042c0.489-2.72-1.327-5.32-4.058-5.807
			c-2.731-0.488-5.341,1.322-5.831,4.042C-189.488,449.337-187.672,451.938-184.941,452.425"/>
		<path fill="#FF7637" d="M-185.788,452.904c2.732,0.532,5.38-1.244,5.914-3.965c0.533-2.722-1.249-5.359-3.981-5.89
			c-2.732-0.532-5.38,1.243-5.914,3.965C-190.302,449.735-188.52,452.372-185.788,452.904"/>
		<path fill="#FF7737" d="M-186.634,453.384c2.734,0.576,5.419-1.165,5.997-3.889c0.578-2.723-1.17-5.398-3.904-5.974
			c-2.734-0.576-5.419,1.165-5.997,3.888C-191.116,450.133-189.368,452.807-186.634,453.384"/>
		<path fill="#FF7838" d="M-187.481,453.863c2.736,0.62,5.458-1.087,6.081-3.812c0.622-2.725-1.091-5.437-3.827-6.057
			c-2.736-0.62-5.458,1.086-6.081,3.811C-191.93,450.531-190.217,453.242-187.481,453.863"/>
		<path fill="#FF7938" d="M-188.327,454.342c2.738,0.664,5.497-1.008,6.164-3.735c0.666-2.727-1.012-5.476-3.75-6.14
			c-2.738-0.664-5.497,1.008-6.164,3.734C-192.743,450.928-191.065,453.677-188.327,454.342"/>
		<path fill="#FF7A39" d="M-189.174,454.821c2.739,0.709,5.536-0.93,6.248-3.658c0.711-2.729-0.933-5.515-3.673-6.223
			c-2.739-0.708-5.537,0.929-6.248,3.658C-193.557,451.326-191.913,454.112-189.174,454.821"/>
		<path fill="#FF7B39" d="M-190.02,455.3c2.741,0.753,5.576-0.851,6.331-3.581c0.755-2.731-0.854-5.554-3.595-6.306
			c-2.741-0.753-5.576,0.85-6.331,3.581C-194.371,451.724-192.762,454.547-190.02,455.3"/>
		<path fill="#FF7C3A" d="M-190.867,455.779c2.743,0.797,5.615-0.772,6.415-3.505c0.799-2.732-0.775-5.593-3.518-6.389
			c-2.743-0.797-5.615,0.772-6.415,3.504C-195.185,452.121-193.61,454.982-190.867,455.779"/>
		<path fill="#FF7D3A" d="M-191.714,456.258c2.745,0.841,5.654-0.694,6.498-3.428c0.844-2.734-0.697-5.632-3.441-6.472
			c-2.745-0.841-5.654,0.693-6.498,3.427C-195.999,452.519-194.458,455.417-191.714,456.258"/>
		<path fill="#FF7E3B" d="M-192.56,456.737c2.746,0.885,5.693-0.615,6.582-3.351c0.888-2.736-0.618-5.671-3.364-6.556
			c-2.746-0.885-5.693,0.615-6.582,3.351C-196.812,452.917-195.306,455.852-192.56,456.737"/>
		<path fill="#FF7F3B" d="M-193.407,457.216c2.748,0.929,5.732-0.537,6.665-3.274c0.932-2.738-0.539-5.71-3.287-6.639
			c-2.748-0.929-5.732,0.536-6.665,3.274C-197.626,453.315-196.155,456.287-193.407,457.216"/>
		<path fill="#FF803B" d="M-194.253,457.695c2.75,0.974,5.771-0.458,6.749-3.197c0.977-2.739-0.46-5.749-3.21-6.722
			c-2.75-0.973-5.771,0.458-6.749,3.197C-198.44,453.712-197.003,456.722-194.253,457.695"/>
		<path fill="#FF813C" d="M-195.1,458.175c2.752,1.018,5.81-0.38,6.832-3.121c1.021-2.741-0.381-5.788-3.133-6.805
			c-2.752-1.018-5.81,0.379-6.832,3.12C-199.254,454.11-197.851,457.157-195.1,458.175"/>
		<path fill="#FF823C" d="M-195.946,458.654c2.753,1.062,5.849-0.301,6.915-3.044c1.065-2.743-0.302-5.827-3.056-6.888
			c-2.754-1.062-5.85,0.301-6.915,3.043C-200.067,454.508-198.7,457.592-195.946,458.654"/>
		<path fill="#FF833D" d="M-196.793,459.133c2.755,1.106,5.889-0.223,6.999-2.967c1.11-2.745-0.224-5.866-2.979-6.971
			c-2.755-1.106-5.889,0.222-6.999,2.967C-200.881,454.906-199.548,458.027-196.793,459.133"/>
		<path fill="#FF843D" d="M-197.639,459.612c2.757,1.15,5.928-0.144,7.082-2.89c1.154-2.746-0.145-5.905-2.902-7.054
			c-2.757-1.15-5.928,0.144-7.082,2.89C-201.695,455.303-200.396,458.462-197.639,459.612"/>
		<path fill="#FF853E" d="M-198.486,460.091c2.759,1.194,5.967-0.066,7.166-2.813c1.199-2.748-0.066-5.944-2.824-7.138
			c-2.759-1.194-5.967,0.065-7.166,2.813C-202.509,455.701-201.244,458.897-198.486,460.091"/>
		<path fill="#FF863E" d="M-199.332,460.57c2.76,1.239,6.006,0.013,7.249-2.737c1.243-2.75,0.013-5.983-2.747-7.221
			c-2.761-1.238-6.006-0.013-7.249,2.736C-203.323,456.099-202.093,459.332-199.332,460.57"/>
		<path fill="#FF873F" d="M-200.179,461.049c2.762,1.283,6.045,0.092,7.333-2.66c1.287-2.752,0.092-6.022-2.67-7.304
			c-2.762-1.283-6.045-0.092-7.333,2.66C-204.136,456.496-202.941,459.767-200.179,461.049"/>
		<path fill="#FF883F" d="M-201.025,461.528c2.764,1.327,6.084,0.17,7.416-2.583c1.332-2.753,0.171-6.061-2.593-7.387
			c-2.764-1.327-6.084-0.17-7.416,2.583C-204.95,456.894-203.789,460.202-201.025,461.528"/>
		<path fill="#FF893F" d="M-201.872,462.007c2.766,1.371,6.123,0.249,7.5-2.506c1.376-2.755,0.25-6.1-2.516-7.47
			c-2.766-1.371-6.123-0.249-7.5,2.506C-205.764,457.292-204.638,460.636-201.872,462.007"/>
		<path fill="#FF8A40" d="M-202.718,462.487c2.767,1.415,6.162,0.327,7.583-2.429c1.42-2.757,0.328-6.139-2.439-7.553
			c-2.768-1.415-6.163-0.327-7.583,2.429C-206.578,457.69-205.486,461.071-202.718,462.487"/>
		<path fill="#FF8B40" d="M-203.565,462.966c2.769,1.459,6.202,0.406,7.667-2.353c1.465-2.759,0.407-6.178-2.362-7.636
			c-2.769-1.459-6.202-0.406-7.667,2.352C-207.391,458.087-206.334,461.506-203.565,462.966"/>
		<path fill="#FF8C41" d="M-204.412,463.445c2.771,1.504,6.241,0.484,7.75-2.276c1.509-2.76,0.486-6.217-2.285-7.72
			c-2.771-1.503-6.241-0.485-7.75,2.276C-208.205,458.485-207.182,461.941-204.412,463.445"/>
		<path fill="#FF8D41" d="M-205.258,463.924c2.773,1.548,6.28,0.563,7.833-2.199c1.553-2.762,0.565-6.256-2.208-7.803
			c-2.773-1.547-6.28-0.563-7.833,2.199C-209.019,458.883-208.031,462.376-205.258,463.924"/>
		<path fill="#FF8E42" d="M-206.105,464.403c2.774,1.592,6.319,0.641,7.917-2.122c1.598-2.764,0.644-6.294-2.131-7.886
			c-2.775-1.592-6.319-0.642-7.917,2.122C-209.833,459.281-208.879,462.811-206.105,464.403"/>
		<path fill="#FF8F42" d="M-206.951,464.882c2.776,1.636,6.358,0.72,8-2.046c1.642-2.766,0.723-6.333-2.054-7.969
			c-2.776-1.636-6.358-0.72-8,2.045C-210.647,459.678-209.727,463.246-206.951,464.882"/>
		<path fill="#FF9043" d="M-207.798,465.361c2.778,1.68,6.397,0.798,8.084-1.969c1.686-2.767,0.802-6.372-1.976-8.052
			c-2.778-1.68-6.397-0.799-8.084,1.968C-211.46,460.076-210.576,463.681-207.798,465.361"/>
		<path fill="#FF9143" d="M-208.644,465.84c2.78,1.724,6.436,0.877,8.167-1.892c1.731-2.769,0.88-6.411-1.899-8.135
			c-2.78-1.724-6.436-0.877-8.167,1.892C-212.274,460.474-211.424,464.116-208.644,465.84"/>
		<path fill="#FF9243" d="M-209.491,466.319c2.781,1.768,6.475,0.956,8.251-1.815c1.775-2.771,0.959-6.45-1.822-8.218
			c-2.782-1.768-6.476-0.956-8.251,1.815C-213.088,460.871-212.272,464.551-209.491,466.319"/>
		<path fill="#FF9344" d="M-210.337,466.799c2.783,1.813,6.515,1.034,8.334-1.738c1.819-2.773,1.038-6.489-1.745-8.302
			c-2.783-1.812-6.515-1.034-8.334,1.738C-213.902,461.269-213.12,464.986-210.337,466.799"/>
		<path fill="#FF9444" d="M-211.184,467.278c2.785,1.857,6.554,1.113,8.418-1.662c1.864-2.774,1.117-6.528-1.668-8.385
			c-2.785-1.857-6.554-1.113-8.418,1.661C-214.715,461.667-213.969,465.421-211.184,467.278"/>
		<path fill="#FF9545" d="M-212.03,467.757c2.787,1.901,6.593,1.191,8.501-1.585c1.908-2.776,1.196-6.567-1.591-8.468
			c-2.787-1.901-6.593-1.191-8.501,1.585C-215.529,462.065-214.817,465.856-212.03,467.757"/>
		<path fill="#FF9645" d="M-212.877,468.236c2.789,1.945,6.632,1.27,8.585-1.508c1.952-2.778,1.275-6.606-1.514-8.551
			c-2.789-1.945-6.632-1.27-8.585,1.508C-216.343,462.462-215.665,466.291-212.877,468.236"/>
		<path fill="#FF9746" d="M-213.723,468.715c2.79,1.989,6.671,1.348,8.668-1.431c1.997-2.78,1.353-6.645-1.437-8.634
			c-2.791-1.989-6.671-1.348-8.668,1.431C-217.157,462.86-216.514,466.726-213.723,468.715"/>
		<path fill="#FF9846" d="M-214.57,469.194c2.792,2.033,6.71,1.427,8.751-1.354c2.041-2.781,1.432-6.684-1.36-8.717
			c-2.792-2.033-6.71-1.427-8.751,1.354C-217.971,463.258-217.362,467.161-214.57,469.194"/>
		<path fill="#FF9947" d="M-215.416,469.673c2.794,2.078,6.749,1.505,8.835-1.278c2.085-2.783,1.511-6.723-1.283-8.8
			c-2.794-2.077-6.75-1.505-8.835,1.277C-218.784,463.656-218.21,467.596-215.416,469.673"/>
		<path fill="#FF9A47" d="M-216.263,470.152c2.796,2.122,6.788,1.584,8.918-1.201c2.13-2.785,1.59-6.762-1.205-8.884
			c-2.796-2.121-6.789-1.584-8.918,1.201C-219.598,464.053-219.058,468.031-216.263,470.152"/>
		<path fill="#FF9B47" d="M-217.109,470.631c2.797,2.166,6.827,1.662,9.002-1.124c2.174-2.787,1.669-6.801-1.128-8.967
			c-2.798-2.166-6.828-1.663-9.002,1.124C-220.412,464.451-219.907,468.466-217.109,470.631"/>
		<path fill="#FF9C48" d="M-217.956,471.111c2.799,2.21,6.867,1.741,9.085-1.047c2.218-2.788,1.748-6.84-1.051-9.05
			c-2.799-2.21-6.867-1.741-9.085,1.047C-221.226,464.849-220.755,468.9-217.956,471.111"/>
		<path fill="#FF9D48" d="M-218.803,471.59c2.801,2.254,6.906,1.819,9.169-0.97c2.263-2.79,1.827-6.879-0.974-9.133
			c-2.801-2.254-6.906-1.82-9.169,0.97C-222.039,465.246-221.603,469.335-218.803,471.59"/>
		<path fill="#FF9E49" d="M-219.649,472.069c2.803,2.298,6.945,1.898,9.252-0.894c2.307-2.792,1.905-6.918-0.897-9.216
			c-2.803-2.298-6.945-1.898-9.252,0.894C-222.853,465.644-222.452,469.77-219.649,472.069"/>
		<path fill="#FF9F49" d="M-220.496,472.548c2.804,2.343,6.984,1.977,9.336-0.817c2.351-2.794,1.984-6.957-0.82-9.299
			c-2.805-2.342-6.984-1.977-9.336,0.817C-223.667,466.042-223.3,470.205-220.496,472.548"/>
		<path fill="#FFA04A" d="M-221.342,473.027c2.806,2.387,7.023,2.055,9.419-0.74c2.396-2.795,2.063-6.996-0.743-9.382
			c-2.806-2.386-7.023-2.055-9.419,0.74C-224.481,466.44-224.148,470.64-221.342,473.027"/>
		<path fill="#FFA14A" d="M-222.189,473.506c2.808,2.431,7.062,2.134,9.503-0.663c2.44-2.797,2.142-7.035-0.666-9.466
			c-2.808-2.431-7.063-2.134-9.503,0.663C-225.294,466.837-224.996,471.075-222.189,473.506"/>
		<path fill="#FFA24B" d="M-223.035,473.985c2.81,2.475,7.101,2.212,9.586-0.586c2.484-2.799,2.221-7.074-0.589-9.549
			c-2.81-2.475-7.102-2.212-9.586,0.586C-226.108,467.235-225.845,471.51-223.035,473.985"/>
		<path fill="#FFA34B" d="M-223.882,474.464c2.811,2.519,7.14,2.291,9.67-0.51c2.529-2.801,2.3-7.113-0.512-9.632
			c-2.812-2.519-7.141-2.291-9.669,0.51C-226.922,467.633-226.693,471.945-223.882,474.464"/>
		<path fill="#FFA44C" d="M-224.728,474.943c2.813,2.563,7.18,2.369,9.753-0.433c2.573-2.802,2.379-7.152-0.435-9.715
			c-2.813-2.563-7.18-2.369-9.753,0.433C-227.736,468.031-227.541,472.38-224.728,474.943"/>
		<path fill="#FFA44C" d="M-225.575,475.423c2.815,2.608,7.219,2.448,9.836-0.356c2.617-2.804,2.457-7.191-0.357-9.798
			c-2.815-2.607-7.219-2.448-9.836,0.356C-228.55,468.428-228.39,472.815-225.575,475.423"/>
		<path fill="#FFA54C" d="M-226.421,475.902c2.817,2.652,7.258,2.526,9.92-0.279c2.662-2.806,2.536-7.23-0.28-9.881
			c-2.817-2.651-7.258-2.526-9.92,0.279C-229.363,468.826-229.238,473.25-226.421,475.902"/>
		<path fill="#FFA64D" d="M-227.268,476.381c2.818,2.696,7.297,2.605,10.003-0.202c2.706-2.808,2.615-7.269-0.203-9.964
			c-2.819-2.695-7.297-2.605-10.003,0.202C-230.177,469.224-230.086,473.685-227.268,476.381"/>
		<path fill="#FFA74D" d="M-228.114,476.86c2.82,2.74,7.336,2.683,10.087-0.126c2.75-2.809,2.694-7.308-0.126-10.048
			c-2.82-2.74-7.336-2.683-10.087,0.126C-230.991,469.621-230.934,474.12-228.114,476.86"/>
		<path fill="#FFA84E" d="M-228.961,477.339c2.822,2.784,7.375,2.762,10.17-0.049c2.795-2.811,2.773-7.347-0.049-10.131
			c-2.822-2.784-7.376-2.762-10.17,0.049C-231.805,470.019-231.783,474.555-228.961,477.339"/>
		<path fill="#FFA94E" d="M-229.807,477.818c2.824,2.828,7.414,2.841,10.254,0.028c2.839-2.813,2.852-7.386,0.028-10.214
			c-2.824-2.828-7.415-2.84-10.254-0.028C-232.618,470.417-232.631,474.99-229.807,477.818"/>
		<path fill="#FFAA4F" d="M-230.654,478.297c2.825,2.872,7.453,2.919,10.337,0.105c2.883-2.815,2.93-7.425,0.105-10.297
			c-2.826-2.872-7.454-2.919-10.337-0.105C-233.432,470.815-233.479,475.425-230.654,478.297"/>
		<path fill="#FFAB4F" d="M-231.501,478.776c2.827,2.917,7.493,2.998,10.421,0.182c2.928-2.816,3.009-7.464,0.182-10.38
			c-2.828-2.916-7.493-2.998-10.421-0.181C-234.246,471.212-234.328,475.86-231.501,478.776"/>
		<path fill="#FFAC50" d="M-232.347,479.255c2.829,2.961,7.532,3.076,10.504,0.258c2.972-2.818,3.088-7.503,0.259-10.463
			c-2.829-2.96-7.532-3.076-10.504-0.258C-235.06,471.61-235.176,476.295-232.347,479.255"/>
		<path fill="#FFAD50" d="M-233.194,479.734c2.831,3.005,7.571,3.155,10.587,0.335c3.016-2.82,3.167-7.542,0.336-10.546
			c-2.831-3.005-7.571-3.155-10.587-0.335C-235.874,472.008-236.024,476.73-233.194,479.734"/>
		<path fill="#FFAE50" d="M-234.04,480.214c2.832,3.049,7.61,3.233,10.671,0.412c3.061-2.822,3.246-7.581,0.414-10.63
			c-2.833-3.049-7.61-3.233-10.671-0.412C-236.687,472.406-236.872,477.164-234.04,480.214"/>
		<path fill="#FFAF51" d="M-234.887,480.693c2.834,3.093,7.649,3.312,10.754,0.489c3.105-2.824,3.325-7.62,0.491-10.713
			c-2.835-3.093-7.649-3.312-10.754-0.489C-237.501,472.803-237.721,477.599-234.887,480.693"/>
		<path fill="#FFB051" d="M-235.733,481.172c2.836,3.137,7.688,3.39,10.838,0.565c3.149-2.825,3.404-7.659,0.568-10.796
			c-2.836-3.137-7.689-3.39-10.838-0.565C-238.315,473.201-238.569,478.034-235.733,481.172"/>
		<path fill="#FFB152" d="M-236.58,481.651c2.838,3.182,7.727,3.469,10.921,0.642c3.194-2.827,3.482-7.698,0.645-10.879
			c-2.838-3.181-7.728-3.469-10.921-0.642C-239.129,473.599-239.417,478.469-236.58,481.651"/>
		<path fill="#FFB252" d="M-237.426,482.13c2.839,3.226,7.766,3.547,11.005,0.719c3.238-2.829,3.561-7.737,0.722-10.962
			c-2.84-3.225-7.767-3.547-11.005-0.719C-239.942,473.996-240.266,478.904-237.426,482.13"/>
		<path fill="#FFB353" d="M-238.273,482.609c2.841,3.27,7.806,3.626,11.088,0.796c3.282-2.831,3.64-7.776,0.799-11.045
			c-2.842-3.269-7.806-3.626-11.088-0.796C-240.756,474.394-241.114,479.339-238.273,482.609"/>
		<path fill="#FFB453" d="M-239.119,483.088c2.843,3.314,7.845,3.705,11.172,0.873c3.327-2.832,3.719-7.815,0.876-11.128
			c-2.843-3.314-7.845-3.704-11.172-0.872C-241.57,474.792-241.962,479.774-239.119,483.088"/>
		<path fill="#FFB554" d="M-239.966,483.567c2.845,3.358,7.884,3.783,11.255,0.949c3.371-2.834,3.798-7.853,0.953-11.211
			c-2.845-3.358-7.884-3.783-11.255-0.949C-242.384,475.19-242.81,480.209-239.966,483.567"/>
		<path fill="#FFB654" d="M-240.812,484.046c2.846,3.402,7.923,3.862,11.339,1.026c3.415-2.836,3.877-7.892,1.03-11.295
			c-2.847-3.402-7.923-3.861-11.339-1.026C-243.198,475.587-243.659,480.644-240.812,484.046"/>
		<path fill="#FFB754" d="M-241.659,484.526c2.848,3.447,7.962,3.94,11.422,1.103c3.46-2.838,3.956-7.931,1.107-11.378
			c-2.849-3.446-7.962-3.94-11.422-1.103C-244.011,475.985-244.507,481.079-241.659,484.526"/>
		<path fill="#FFB855" d="M-242.505,485.005c2.85,3.491,8.001,4.019,11.506,1.18c3.504-2.839,4.034-7.97,1.184-11.461
			c-2.85-3.49-8.002-4.018-11.505-1.18C-244.825,476.383-245.355,481.514-242.505,485.005"/>
		<path fill="#FFB955" d="M-243.352,485.484c2.852,3.535,8.04,4.097,11.589,1.257c3.548-2.841,4.113-8.009,1.262-11.544
			c-2.852-3.534-8.041-4.097-11.589-1.256C-245.639,476.781-246.204,481.949-243.352,485.484"/>
		<path fill="#FFBA56" d="M-244.198,485.963c2.853,3.579,8.079,4.176,11.672,1.333c3.593-2.843,4.192-8.048,1.339-11.627
			c-2.854-3.579-8.08-4.176-11.672-1.333C-246.453,477.178-247.052,482.384-244.198,485.963"/>
		<path fill="#FFBB56" d="M-245.045,486.442c2.855,3.623,8.118,4.254,11.756,1.41c3.637-2.845,4.271-8.087,1.416-11.71
			c-2.856-3.623-8.119-4.254-11.756-1.41C-247.266,477.576-247.9,482.819-245.045,486.442"/>
		<path fill="#FFBC57" d="M-245.892,486.921c2.857,3.667,8.158,4.333,11.839,1.487c3.682-2.846,4.35-8.126,1.493-11.793
			c-2.857-3.667-8.158-4.333-11.839-1.487C-248.08,477.974-248.748,483.254-245.892,486.921"/>
		<path fill="#FFBD57" d="M-246.738,487.4c2.859,3.712,8.197,4.411,11.923,1.564c3.726-2.848,4.429-8.165,1.57-11.877
			c-2.859-3.711-8.197-4.411-11.923-1.564C-248.894,478.371-249.597,483.689-246.738,487.4"/>
		<path fill="#FFBE58" d="M-247.585,487.879c2.86,3.756,8.236,4.49,12.006,1.641c3.77-2.85,4.508-8.204,1.647-11.96
			c-2.861-3.755-8.236-4.49-12.006-1.64C-249.708,478.769-250.445,484.124-247.585,487.879"/>
		<path fill="#FFBF58" d="M-248.431,488.358c2.862,3.8,8.275,4.569,12.09,1.717c3.815-2.852,4.586-8.243,1.724-12.043
			c-2.863-3.799-8.275-4.568-12.09-1.717C-250.521,479.167-251.293,484.559-248.431,488.358"/>
		<path fill="#FFC058" d="M-249.278,488.838c2.864,3.844,8.314,4.647,12.173,1.794c3.859-2.853,4.665-8.282,1.801-12.126
			c-2.865-3.843-8.315-4.647-12.173-1.794C-251.335,479.565-252.142,484.994-249.278,488.838"/>
		<path fill="#FFC159" d="M-250.124,489.317c2.866,3.888,8.353,4.726,12.257,1.871c3.903-2.855,4.744-8.321,1.878-12.209
			c-2.866-3.888-8.354-4.725-12.257-1.871C-252.149,479.962-252.99,485.428-250.124,489.317"/>
		<path fill="#FFC259" d="M-250.971,489.796c2.868,3.932,8.392,4.804,12.34,1.948c3.948-2.857,4.823-8.36,1.955-12.292
			c-2.868-3.932-8.393-4.804-12.34-1.947C-252.963,480.36-253.838,485.863-250.971,489.796"/>
		<path fill="#FFC35A" d="M-251.817,490.275c2.869,3.976,8.431,4.883,12.424,2.025c3.992-2.859,4.902-8.399,2.033-12.375
			c-2.87-3.976-8.432-4.882-12.423-2.024C-253.777,480.758-254.686,486.298-251.817,490.275"/>
		<path fill="#FFC45A" d="M-252.664,490.754c2.871,4.021,8.471,4.961,12.507,2.101c4.036-2.86,4.981-8.438,2.11-12.459
			c-2.872-4.02-8.471-4.961-12.507-2.101C-254.59,481.156-255.535,486.733-252.664,490.754"/>
		<path fill="#FFC55B" d="M-253.51,491.233c2.873,4.065,8.51,5.04,12.59,2.178c4.081-2.862,5.059-8.477,2.187-12.542
			c-2.873-4.064-8.51-5.039-12.59-2.178C-255.404,481.553-256.383,487.168-253.51,491.233"/>
		<path fill="#FFC65B" d="M-254.357,491.712c2.875,4.109,8.549,5.118,12.674,2.255c4.125-2.864,5.138-8.516,2.264-12.625
			c-2.875-4.108-8.549-5.118-12.674-2.255C-256.218,481.951-257.231,487.603-254.357,491.712"/>
		<path fill="#FFC75C" d="M-255.203,492.191c2.876,4.153,8.588,5.197,12.757,2.332c4.169-2.866,5.217-8.555,2.341-12.708
			c-2.877-4.153-8.589-5.196-12.757-2.331C-257.032,482.349-258.08,488.038-255.203,492.191"/>
		<path fill="#FFC85C" d="M-256.05,492.67c2.878,4.197,8.627,5.275,12.841,2.409c4.214-2.867,5.296-8.594,2.418-12.791
			c-2.879-4.197-8.628-5.275-12.841-2.408C-257.845,482.747-258.928,488.473-256.05,492.67"/>
		<path fill="#FFC95C" d="M-256.896,493.15c2.88,4.241,8.666,5.354,12.924,2.485c4.258-2.869,5.375-8.633,2.495-12.874
			c-2.88-4.241-8.667-5.353-12.924-2.485C-258.659,483.144-259.776,488.908-256.896,493.15"/>
		<path fill="#FFCA5D" d="M-257.743,493.629c2.882,4.286,8.705,5.432,13.008,2.562c4.302-2.871,5.454-8.672,2.572-12.957
			c-2.882-4.285-8.706-5.432-13.008-2.562C-259.473,483.542-260.625,489.343-257.743,493.629"/>
		<path fill="#FFCB5D" d="M-258.589,494.108c2.883,4.33,8.744,5.511,13.091,2.639c4.347-2.873,5.533-8.711,2.649-13.041
			c-2.884-4.329-8.745-5.511-13.091-2.638C-260.287,483.94-261.473,489.778-258.589,494.108"/>
		<path fill="#FFCC5E" d="M-259.436,494.587c2.885,4.374,8.784,5.59,13.175,2.716c4.391-2.874,5.611-8.75,2.726-13.124
			c-2.886-4.373-8.784-5.589-13.175-2.715C-261.101,484.337-262.321,490.213-259.436,494.587"/>
		<path fill="#FFCD5E" d="M-260.283,495.066c2.887,4.418,8.823,5.668,13.258,2.793c4.435-2.876,5.69-8.789,2.803-13.207
			c-2.887-4.417-8.823-5.668-13.258-2.792C-261.914,484.735-263.169,490.648-260.283,495.066"/>
		<path fill="#FFCE5F" d="M-261.129,495.545c2.889,4.462,8.862,5.747,13.341,2.869c4.48-2.878,5.769-8.828,2.881-13.29
			c-2.889-4.462-8.862-5.746-13.341-2.869C-262.728,485.133-264.018,491.083-261.129,495.545"/>
		<path fill="#FFCF5F" d="M-261.976,496.024c2.89,4.506,8.901,5.825,13.425,2.946c4.524-2.88,5.848-8.867,2.958-13.373
			c-2.891-4.506-8.902-5.825-13.425-2.946C-263.542,485.531-264.866,491.518-261.976,496.024"/>
		<path fill="#FFD060" d="M-262.822,496.503c2.892,4.551,8.94,5.904,13.508,3.023c4.568-2.881,5.927-8.906,3.035-13.456
			c-2.893-4.55-8.941-5.903-13.508-3.022C-264.356,485.928-265.714,491.953-262.822,496.503"/>
		<path fill="#FFD160" d="M-263.669,496.982c2.894,4.595,8.979,5.982,13.592,3.1c4.613-2.883,6.006-8.945,3.112-13.539
			c-2.894-4.594-8.98-5.982-13.592-3.099C-265.169,486.326-266.562,492.388-263.669,496.982"/>
		<path fill="#FFD260" d="M-264.515,497.461c2.896,4.639,9.018,6.061,13.675,3.177c4.657-2.885,6.085-8.984,3.189-13.623
			c-2.896-4.638-9.019-6.06-13.675-3.176C-265.983,486.724-267.411,492.823-264.515,497.461"/>
		<path fill="#FFD361" d="M-265.362,497.941c2.897,4.683,9.057,6.139,13.759,3.253c4.701-2.887,6.163-9.023,3.266-13.706
			c-2.898-4.682-9.058-6.139-13.759-3.253C-266.797,487.122-268.259,493.258-265.362,497.941"/>
		<path fill="#FFD461" d="M-266.208,498.42c2.899,4.727,9.097,6.218,13.842,3.33c4.746-2.888,6.242-9.062,3.343-13.789
			c-2.9-4.727-9.097-6.217-13.842-3.329C-267.611,487.519-269.107,493.693-266.208,498.42"/>
		<path fill="#FFD562" d="M-267.055,498.899c2.901,4.771,9.136,6.296,13.926,3.407c4.79-2.89,6.321-9.101,3.42-13.872
			c-2.902-4.771-9.136-6.296-13.926-3.406C-268.425,487.917-269.956,494.127-267.055,498.899"/>
		<path fill="#FFD662" d="M-267.901,499.378c2.903,4.816,9.175,6.375,14.009,3.484c4.834-2.892,6.4-9.14,3.497-13.955
			c-2.903-4.815-9.175-6.374-14.009-3.483C-269.238,488.315-270.804,494.562-267.901,499.378"/>
		<path fill="#FFD763" d="M-268.748,499.857c2.904,4.86,9.214,6.454,14.093,3.56c4.879-2.894,6.479-9.179,3.574-14.038
			c-2.905-4.859-9.215-6.453-14.093-3.56C-270.052,488.712-271.652,494.997-268.748,499.857"/>
		<path fill="#FFD863" d="M-269.594,500.336c2.906,4.904,9.253,6.532,14.176,3.637c4.923-2.895,6.558-9.218,3.651-14.121
			c-2.907-4.903-9.254-6.531-14.176-3.637C-270.866,489.11-272.501,495.432-269.594,500.336"/>
		<path fill="#FFD964" d="M-270.441,500.815c2.908,4.948,9.292,6.611,14.26,3.714c4.967-2.897,6.636-9.257,3.729-14.205
			c-2.909-4.947-9.293-6.61-14.26-3.713C-271.68,489.508-273.349,495.867-270.441,500.815"/>
		<path fill="#FFDA64" d="M-271.287,501.294c2.91,4.992,9.331,6.689,14.343,3.791c5.012-2.899,6.715-9.296,3.806-14.288
			c-2.91-4.992-9.332-6.689-14.343-3.79C-272.493,489.906-274.197,496.302-271.287,501.294"/>
	</g>
	<g>
		<rect x="-261.425" y="409.522" width="54.02" height="53.809"/>
		<path fill="#FFFFFF" d="M-257.145,422.011l1.575-1.561c0.429,0.542,0.832,0.86,1.386,0.86c0.606,0,0.995-0.436,0.995-1.296v-5.862
			h2.433v5.875c0,1.164-0.277,1.985-0.87,2.606c-0.58,0.609-1.411,0.94-2.419,0.94
			C-255.583,423.572-256.515,422.898-257.145,422.011"/>
		<polygon fill="#FFFFFF" points="-249.832,414.151 -242.737,414.151 -242.737,416.321 -247.413,416.321 -247.413,417.737 
			-243.179,417.737 -243.179,419.762 -247.413,419.762 -247.413,421.23 -242.675,421.23 -242.675,423.413 -249.832,423.413 		"/>
		<polygon fill="#FFFFFF" points="-239.258,416.401 -241.892,416.401 -241.892,414.152 -234.168,414.152 -234.168,416.401 
			-236.813,416.401 -236.813,423.414 -239.258,423.414 		"/>
		<path fill="#FFFFFF" d="M-256.941,425.227h4.523c1.109,0,1.891,0.291,2.407,0.821c0.353,0.383,0.567,0.873,0.567,1.509v0.026
			c0,1.071-0.579,1.706-1.361,2.064c1.071,0.37,1.752,1.006,1.752,2.262v0.027c0,1.587-1.235,2.553-3.34,2.553h-4.549V425.227z
			 M-251.849,428.085c0-0.516-0.391-0.794-1.109-0.794h-1.6v1.628h1.537c0.744,0,1.172-0.265,1.172-0.807V428.085z
			 M-252.694,430.718h-1.864v1.707h1.89c0.756,0,1.172-0.305,1.172-0.847v-0.027C-251.497,431.049-251.875,430.718-252.694,430.718"
			/>
		<path fill="#FFFFFF" d="M-248.685,425.227h4.172c1.348,0,2.28,0.371,2.873,0.993c0.517,0.542,0.781,1.244,0.781,2.156v0.026
			c0,1.429-0.718,2.369-1.814,2.859l2.104,3.228h-2.81l-1.777-2.805h-1.084v2.805h-2.445V425.227z M-244.615,429.673
			c0.82,0,1.311-0.424,1.311-1.098v-0.026c0-0.741-0.517-1.112-1.323-1.112h-1.613v2.236H-244.615z"/>
		<path fill="#FFFFFF" d="M-237.493,425.161h2.355l3.756,9.328h-2.621l-0.63-1.667h-3.415l-0.63,1.667h-2.559L-237.493,425.161z
			 M-235.352,430.824l-0.983-2.62l-0.995,2.62H-235.352z"/>
		<rect x="-231.217" y="425.227" fill="#FFFFFF" width="2.444" height="9.262"/>
		<polygon fill="#FFFFFF" points="-227.915,425.227 -225.634,425.227 -222.005,430.123 -222.005,425.227 -219.585,425.227 
			-219.585,434.489 -221.715,434.489 -225.496,429.408 -225.496,434.489 -227.915,434.489 		"/>
		<path fill="#FFFFFF" d="M-219.445,433.113l1.361-1.707c0.883,0.728,1.84,1.112,2.86,1.112c0.669,0,1.021-0.238,1.021-0.635v-0.027
			c0-0.397-0.29-0.595-1.5-0.899c-1.878-0.45-3.326-1.006-3.326-2.898v-0.026c0-1.72,1.298-2.964,3.415-2.964
			c1.5,0,2.671,0.423,3.629,1.23l-1.222,1.813c-0.806-0.609-1.689-0.913-2.469-0.913c-0.593,0-0.883,0.252-0.883,0.595v0.026
			c0,0.424,0.303,0.609,1.537,0.9c2.016,0.463,3.276,1.152,3.276,2.884v0.027c0,1.892-1.423,3.017-3.565,3.017
			C-216.875,434.648-218.349,434.132-219.445,433.113"/>
		<rect x="-257.145" y="452.587" fill="#FFFFFF" width="16.147" height="2.835"/>
	</g>
</g>
</svg>
